<svg width="400" height="400" viewBox="0 0 400 400" fill="none" xmlns="http://www.w3.org/2000/svg">
<rect width="400" height="400" fill="#0B132B"/>
<path d="M400 305.92H0V306.12H400V305.92Z" fill="#EBEBEB"/>
<path d="M310.76 311.928H284.264V312.128H310.76V311.928Z" fill="#EBEBEB"/>
<path d="M241.6 318.696H206.376V318.896H241.6V318.696Z" fill="#EBEBEB"/>
<path d="M347.392 319.352H311.568V319.552H347.392V319.352Z" fill="#EBEBEB"/>
<path d="M77.504 311.728H42.952V311.928H77.504V311.728Z" fill="#EBEBEB"/>
<path d="M89.696 311.728H84.632V311.928H89.696V311.728Z" fill="#EBEBEB"/>
<path d="M181.104 315.104H106.16V315.304H181.104V315.104Z" fill="#EBEBEB"/>
<path d="M189.6 270.24H35.128C33.9179 270.238 32.758 269.756 31.9031 268.899C31.0482 268.043 30.568 266.882 30.568 265.672V48.528C30.5785 47.3248 31.0633 46.1744 31.9171 45.3266C32.7709 44.4788 33.9248 44.0021 35.128 44H189.6C190.811 44 191.973 44.4813 192.83 45.3379C193.687 46.1946 194.168 47.3565 194.168 48.568V265.672C194.168 266.884 193.687 268.045 192.83 268.902C191.973 269.759 190.811 270.24 189.6 270.24ZM35.128 44.16C33.9709 44.1621 32.862 44.6233 32.0445 45.4422C31.2271 46.2611 30.768 47.3709 30.768 48.528V265.672C30.768 266.829 31.2271 267.939 32.0445 268.758C32.862 269.577 33.9709 270.038 35.128 270.04H189.6C190.758 270.038 191.868 269.577 192.686 268.758C193.505 267.94 193.966 266.83 193.968 265.672V48.528C193.966 47.3702 193.505 46.2604 192.686 45.4417C191.868 44.623 190.758 44.1621 189.6 44.16H35.128Z" fill="#EBEBEB"/>
<path d="M362.648 270.24H208.168C206.957 270.238 205.796 269.756 204.94 268.9C204.084 268.044 203.602 266.883 203.6 265.672V48.528C203.613 47.3241 204.099 46.1737 204.954 45.3261C205.809 44.4785 206.964 44.002 208.168 44H362.648C363.85 44.0042 365.002 44.4818 365.854 45.3294C366.706 46.177 367.189 47.3262 367.2 48.528V265.672C367.2 266.881 366.721 268.04 365.868 268.896C365.015 269.753 363.857 270.236 362.648 270.24ZM208.168 44.16C207.01 44.1621 205.9 44.623 205.082 45.4417C204.263 46.2604 203.802 47.3702 203.8 48.528V265.672C203.802 266.83 204.263 267.94 205.082 268.758C205.9 269.577 207.01 270.038 208.168 270.04H362.648C363.806 270.038 364.916 269.577 365.734 268.758C366.553 267.94 367.014 266.83 367.016 265.672V48.528C367.014 47.3702 366.553 46.2604 365.734 45.4417C364.916 44.623 363.806 44.1621 362.648 44.16H208.168Z" fill="#EBEBEB"/>
<path d="M349.648 35.2001H45.6V295.704H349.648V35.2001Z" fill="#E6E6E6"/>
<path d="M354.4 35.2001H47.152V295.704H354.4V35.2001Z" fill="#F5F5F5"/>
<path d="M345.864 286.976V43.9441L55.688 43.9441V286.976H345.864Z" fill="white"/>
<path d="M345.864 286.968V43.936H342.272V286.968H345.864Z" fill="#E6E6E6"/>
<path d="M350.872 238.056H50.688V242.72H350.872V238.056Z" fill="#F5F5F5"/>
<path d="M350.872 59.344H50.688V71.08H350.872V59.344Z" fill="#F5F5F5"/>
<path d="M40.072 22.936H25.408C25.408 80.112 22.736 240.384 22.736 240.384H41.136L40.072 22.936Z" fill="#F5F5F5"/>
<path d="M66.568 22.936H49.48C49.48 78.192 46.4 233.064 46.4 233.064H67.84L66.568 22.936Z" fill="#F0F0F0"/>
<path d="M92.16 22.936H75.072C75.072 78.192 72 233.064 72 233.064H93.44L92.16 22.936Z" fill="#F0F0F0"/>
<path d="M52.448 22.936H35.36C35.36 84.92 32.256 258.664 32.256 258.664H53.688L52.448 22.936Z" fill="#E6E6E6"/>
<path d="M81.44 22.936H64.352C64.352 84.92 61.24 258.664 61.24 258.664H82.68L81.44 22.936Z" fill="#E6E6E6"/>
<path d="M323.928 22.936H309.264C309.264 80.112 306.6 240.384 306.6 240.384H325L323.928 22.936Z" fill="#F5F5F5"/>
<path d="M350.4 22.936H333.344C333.344 78.192 330.232 233.064 330.232 233.064H351.672L350.4 22.936Z" fill="#F0F0F0"/>
<path d="M376 22.936H358.928C358.928 78.192 355.824 233.064 355.824 233.064H377.264L376 22.936Z" fill="#F0F0F0"/>
<path d="M336.304 22.936H319.2C319.2 84.92 316.096 258.664 316.096 258.664H337.536L336.304 22.936Z" fill="#E6E6E6"/>
<path d="M365.296 22.936H348.208C348.208 84.92 345.104 258.664 345.104 258.664H366.544L365.296 22.936Z" fill="#E6E6E6"/>
<path d="M200 342.048C285.666 342.048 355.112 337.994 355.112 332.992C355.112 327.991 285.666 323.936 200 323.936C114.334 323.936 44.888 327.991 44.888 332.992C44.888 337.994 114.334 342.048 200 342.048Z" fill="#F5F5F5"/>
<path d="M235.665 52.4864L235.58 53.2819L244.123 54.1979L244.208 53.4024L235.665 52.4864Z" fill="#111B39"/>
<path d="M254.656 75.9999L253.856 75.9119L254.768 67.3999C254.935 65.8336 254.791 64.2497 254.343 62.7394C253.895 61.2292 253.154 59.8223 252.16 58.5999C251.433 57.6809 250.576 56.8725 249.616 56.1999L250.072 55.5439C251.099 56.2621 252.018 57.1242 252.8 58.1039C253.862 59.4105 254.654 60.9149 255.131 62.5298C255.607 64.1447 255.759 65.8381 255.576 67.5119L254.656 75.9999Z" fill="#111B39"/>
<path d="M179.096 81.704L181.496 59.568C181.784 56.9296 183.106 54.5128 185.172 52.8469C187.238 51.1811 189.88 50.4019 192.52 50.68L243.92 56.184C246.553 56.4801 248.962 57.8033 250.625 59.866C252.288 61.9287 253.07 64.5643 252.8 67.2L250.4 89.328C250.112 91.967 248.79 94.3845 246.724 96.0517C244.658 97.7188 242.016 98.4999 239.376 98.224L238.304 98.104C238.92 101.752 240.928 106.504 246.072 111.952C235.488 108.216 230.072 102.288 227.296 96.928L188 92.728C185.36 92.4398 182.942 91.1186 181.274 89.0529C179.605 86.9872 178.822 84.3452 179.096 81.704Z" fill="#111B39"/>
<path opacity="0.2" d="M218.68 68.88L214.088 52.992L192.488 50.68C189.849 50.404 187.208 51.184 185.142 52.8494C183.076 54.5149 181.754 56.9304 181.464 59.568L179.064 81.704C178.906 83.203 179.088 84.7185 179.598 86.1371C180.108 87.5557 180.932 88.8407 182.008 89.896L211.8 81.288C214.354 80.5494 216.512 78.8294 217.801 76.5041C219.091 74.1788 219.406 71.4376 218.68 68.88Z" fill="black"/>
<path d="M216.048 68.632L213.088 46.568C212.726 43.9385 211.338 41.559 209.228 39.9492C207.117 38.3394 204.456 37.63 201.824 37.976L150.624 44.848C147.989 45.2023 145.601 46.5868 143.985 48.6982C142.368 50.8095 141.654 53.4755 142 56.112L144.96 78.168C145.32 80.7975 146.706 83.1776 148.815 84.7889C150.924 86.4002 153.584 87.1117 156.216 86.768L157.288 86.624C156.768 90.288 154.888 95.088 149.888 100.672C160.376 96.672 165.632 90.584 168.288 85.152L207.488 79.896C210.111 79.5244 212.481 78.133 214.084 76.0239C215.687 73.9148 216.392 71.2585 216.048 68.632Z" fill="white"/>
<path d="M148.376 101.72L149.568 100.384C153.568 95.888 156.016 91.432 156.768 87.128L156.272 87.192C153.526 87.5562 150.748 86.8178 148.546 85.1386C146.343 83.4594 144.896 80.976 144.52 78.232L141.6 56.168C141.238 53.4225 141.979 50.6454 143.659 48.4445C145.34 46.2436 147.824 44.798 150.568 44.424L201.768 37.544C204.514 37.1779 207.294 37.9167 209.495 39.5982C211.697 41.2796 213.142 43.7663 213.512 46.512L216.472 68.576C216.838 71.3222 216.099 74.1015 214.418 76.3035C212.736 78.5054 210.25 79.95 207.504 80.32L168.552 85.552C165.136 92.448 158.912 97.672 150.04 101.08L148.376 101.72ZM157.8 86.12L157.72 86.688C157.12 90.896 154.984 95.24 151.376 99.6C159.248 96.248 164.792 91.328 167.872 84.96L167.976 84.752L207.392 79.464C209.91 79.1219 212.189 77.7955 213.731 75.7756C215.273 73.7556 215.95 71.2069 215.616 68.688L212.656 46.624C212.314 44.1061 210.987 41.8266 208.968 40.285C206.948 38.7435 204.399 38.0656 201.88 38.4L150.68 45.28C149.429 45.4427 148.222 45.8505 147.129 46.4798C146.036 47.1092 145.077 47.9479 144.308 48.9479C143.539 49.948 142.975 51.0898 142.648 52.308C142.32 53.5263 142.236 54.7972 142.4 56.048L145.36 78.112C145.702 80.6299 147.028 82.9094 149.048 84.451C151.068 85.9925 153.617 86.6704 156.136 86.336L157.8 86.12Z" fill="#111B39"/>
<path d="M167.376 63.48C167.55 64.5132 167.414 65.5747 166.984 66.5304C166.555 67.486 165.851 68.2928 164.963 68.8486C164.075 69.4045 163.042 69.6845 161.995 69.6531C160.948 69.6217 159.933 69.2805 159.08 68.6724C158.227 68.0644 157.573 67.217 157.202 66.2374C156.83 65.2577 156.758 64.1899 156.993 63.169C157.229 62.1481 157.762 61.22 158.525 60.5021C159.288 59.7843 160.247 59.3088 161.28 59.136C161.966 59.0203 162.667 59.0409 163.345 59.1967C164.022 59.3524 164.663 59.6403 165.229 60.0438C165.795 60.4473 166.276 60.9585 166.645 61.5481C167.013 62.1377 167.262 62.7942 167.376 63.48Z" fill="#111B39"/>
<path d="M183.68 64C183.851 65.0318 183.712 66.0913 183.281 67.0443C182.85 67.9973 182.146 68.801 181.258 69.3539C180.371 69.9068 179.339 70.1839 178.293 70.1503C177.248 70.1167 176.236 69.7738 175.385 69.165C174.535 68.5562 173.884 67.7089 173.515 66.7301C173.146 65.7514 173.076 64.6853 173.313 63.6665C173.55 62.6478 174.084 61.7223 174.847 61.007C175.61 60.2917 176.568 59.8187 177.6 59.648C178.983 59.4191 180.401 59.749 181.541 60.5651C182.681 61.3812 183.451 62.6167 183.68 64Z" fill="#111B39"/>
<path d="M198.4 55.0399C198.574 56.0731 198.438 57.1347 198.008 58.0903C197.579 59.0459 196.875 59.8527 195.987 60.4086C195.099 60.9644 194.066 61.2444 193.019 61.213C191.972 61.1817 190.957 60.8404 190.104 60.2324C189.251 59.6244 188.597 58.7769 188.226 57.7973C187.854 56.8177 187.782 55.7499 188.017 54.729C188.253 53.7081 188.786 52.78 189.549 52.0621C190.312 51.3442 191.271 50.8688 192.304 50.6959C192.99 50.5802 193.691 50.6008 194.369 50.7566C195.046 50.9124 195.687 51.2003 196.253 51.6037C196.819 52.0072 197.3 52.5184 197.669 53.108C198.037 53.6977 198.286 54.3542 198.4 55.0399Z" fill="#111B39"/>
<path d="M139.2 135.792L141.176 138.112L143.232 140.512C144.6 142.072 146.016 143.592 147.424 145.04C148.128 145.76 148.84 146.464 149.552 147.128C150.264 147.792 150.968 148.44 151.672 149.008C152.376 149.576 153.072 150.088 153.696 150.52C154.179 150.849 154.688 151.141 155.216 151.392L154.048 151.216C153.708 151.167 153.362 151.241 153.072 151.424C153.072 151.464 153.256 151.424 153.512 151.272C154.215 150.856 154.868 150.359 155.456 149.792C157.008 148.318 158.46 146.741 159.8 145.072C161.248 143.336 162.656 141.488 164.064 139.616L168.24 133.944L168.296 133.864C168.776 133.215 169.471 132.756 170.256 132.57C171.042 132.384 171.868 132.483 172.589 132.848C173.309 133.213 173.876 133.822 174.19 134.566C174.504 135.31 174.545 136.141 174.304 136.912C173.54 139.308 172.653 141.663 171.648 143.968C170.656 146.272 169.56 148.544 168.312 150.8C167.03 153.166 165.541 155.415 163.864 157.52C162.862 158.764 161.733 159.901 160.496 160.912C159.677 161.578 158.776 162.137 157.816 162.576C156.415 163.237 154.876 163.555 153.328 163.504C153.059 163.493 152.791 163.458 152.528 163.4L152.184 163.32C150.578 162.95 149.024 162.38 147.56 161.624C146.323 160.992 145.129 160.282 143.984 159.496C141.908 158.073 139.937 156.5 138.088 154.792C136.28 153.192 134.616 151.448 133.016 149.704C132.216 148.824 131.416 147.944 130.68 147.024C130.304 146.568 129.928 146.12 129.56 145.648L128.424 144.168C127.362 142.757 126.89 140.988 127.106 139.235C127.323 137.482 128.211 135.882 129.584 134.771C130.957 133.661 132.708 133.126 134.467 133.281C136.227 133.435 137.858 134.267 139.016 135.6L139.2 135.792Z" fill="#EF3054"/>
<path d="M168.496 132.352C168.928 128.992 175.024 127.44 175.024 127.44L178.592 125.84C179.175 125.58 179.832 125.536 180.445 125.717C181.058 125.897 181.586 126.289 181.936 126.824L183.752 129.6C183.951 129.899 184.087 130.234 184.155 130.587C184.222 130.939 184.218 131.301 184.144 131.652C184.069 132.003 183.926 132.336 183.721 132.63C183.516 132.925 183.255 133.176 182.952 133.368L179.68 135.416C179.096 135.778 178.441 136.013 177.76 136.104L174.976 136.464C173.808 136.615 172.621 136.431 171.553 135.934C170.486 135.437 169.581 134.647 168.944 133.656L168.776 133.392C168.565 133.088 168.466 132.721 168.496 132.352Z" fill="#FFB573"/>
<path d="M100.84 131.2C110.288 130.024 123.8 130.136 132.84 131.696C135.103 132.106 137.18 133.217 138.777 134.872C140.373 136.528 141.408 138.644 141.736 140.92C143.64 154.592 142 178.52 140.784 202.52C120.112 209.6 98.288 202.424 98.288 202.424C97.536 197.568 99.224 181.672 100.36 173.184C98.656 164.384 95.04 154.376 92.648 142.736C92.3579 141.434 92.3443 140.086 92.6081 138.779C92.8718 137.472 93.4071 136.234 94.1793 135.147C94.9515 134.059 95.9433 133.146 97.0907 132.466C98.2381 131.786 99.5154 131.355 100.84 131.2Z" fill="#EF3054"/>
<path d="M125.208 130.792C126.481 132.275 127.281 134.106 127.504 136.048C128.472 141.6 127.368 150.152 124.448 159.968C121.648 152.064 115.648 141.568 111.912 135.528C110.16 132.648 108.928 130.728 108.816 130.584C114.216 129.32 119.842 129.391 125.208 130.792Z" fill="#E0E0E0"/>
<path d="M114.552 115.36C114.552 116.033 114.353 116.69 113.979 117.249C113.605 117.808 113.074 118.244 112.453 118.501C111.832 118.759 111.148 118.826 110.489 118.695C109.829 118.564 109.223 118.24 108.748 117.764C108.272 117.289 107.949 116.683 107.817 116.023C107.686 115.364 107.753 114.68 108.011 114.059C108.268 113.438 108.704 112.907 109.263 112.533C109.822 112.16 110.48 111.96 111.152 111.96C111.599 111.959 112.041 112.046 112.454 112.217C112.867 112.387 113.243 112.638 113.559 112.954C113.874 113.27 114.125 113.645 114.295 114.058C114.466 114.471 114.553 114.913 114.552 115.36Z" fill="#E0E0E0"/>
<path d="M132.216 102.792C132.056 105.912 130.072 108.352 127.784 108.24C125.496 108.128 123.784 105.488 123.936 102.368C124.088 99.2481 126.08 96.7681 128.368 96.9201C130.656 97.0721 132.376 99.6641 132.216 102.792Z" fill="#E0E0E0"/>
<path d="M110.544 112.152L122.208 121.712C120.696 125.712 121.816 129.712 125.208 130.792C125.768 132.536 123.776 134.368 121.88 136.136C117.48 135.584 112.224 134.752 109.544 131.064C110.4 128.176 111.672 118.088 110.544 112.152Z" fill="#FFB573"/>
<path d="M124.096 134.152C123.645 135.444 122.878 136.602 121.864 137.52C120.224 137.52 117.824 135.672 117.824 135.672C117.824 135.672 118.752 133.064 120.056 132.536C123.376 133.352 124.096 134.152 124.096 134.152Z" fill="#111B39"/>
<path d="M120.352 136.384C120.608 136.191 120.899 136.052 121.21 135.973C121.52 135.895 121.843 135.88 122.16 135.928C124.312 138.984 125.68 143.736 127.008 149.216C126.37 152.848 125.516 156.438 124.448 159.968C123.251 156.714 121.854 153.537 120.264 150.456C120.875 145.787 120.904 141.06 120.352 136.384Z" fill="#111B39"/>
<path opacity="0.2" d="M122.208 121.712L115.328 116.112C115.008 117.339 114.871 118.605 114.92 119.872C115.096 122.432 118.576 125.232 121.56 125.656C121.497 124.31 121.718 122.967 122.208 121.712Z" fill="black"/>
<path d="M108.464 105.04C109.592 112.8 109.864 117.408 114.136 121.04C120.536 126.52 129.912 122.056 131.128 114.096C132.224 106.896 130.192 95.44 122.328 93.04C120.575 92.4993 118.714 92.4135 116.919 92.7907C115.125 93.1678 113.455 93.9954 112.069 95.1957C110.682 96.396 109.623 97.9294 108.993 99.6516C108.362 101.374 108.18 103.228 108.464 105.04Z" fill="#FFB573"/>
<path opacity="0.2" d="M118.688 105.312C118.212 105.079 117.695 104.943 117.166 104.911C116.638 104.88 116.108 104.953 115.608 105.128C116.613 105.388 117.659 105.45 118.688 105.312Z" fill="black"/>
<path opacity="0.2" d="M118.6 106.048C118.13 105.931 117.641 105.917 117.166 106.008C116.69 106.099 116.241 106.293 115.848 106.576C116.793 106.6 117.731 106.42 118.6 106.048Z" fill="black"/>
<path opacity="0.2" d="M117.224 110.552C116.424 110.44 115.624 110.624 115.728 112.04C115.858 111.7 116.059 111.392 116.317 111.136C116.575 110.879 116.884 110.68 117.224 110.552Z" fill="black"/>
<path d="M110.208 110.528C114.504 109.216 114.856 103.616 113.096 102.584C116.696 103.2 120.424 98.328 119.024 96.68C127.824 101.48 134.224 98.936 131.4 92.032C128.08 83.96 118.168 87.232 118.6 89.224C113.16 86.024 103.952 89.912 107.864 93.768C102.504 92.088 98.464 97.448 101.736 101.536C94.88 105.104 101.496 113.2 104.216 112.544C103.872 115.2 110.864 118.096 110.208 110.528Z" fill="#E0E0E0"/>
<path d="M126.448 114.312C126.448 114.312 124.112 113.304 117.312 111.912C117.784 113.936 119 115.76 122.488 116.448C125.976 117.136 126.448 114.312 126.448 114.312Z" fill="#EF3054"/>
<path d="M121.128 114.64C122.475 114.847 123.737 115.429 124.768 116.32C124.037 116.576 123.248 116.615 122.496 116.432C121.151 116.226 119.892 115.644 118.864 114.752C119.591 114.494 120.379 114.455 121.128 114.64Z" fill="#ED893E"/>
<path d="M126.144 114.2C126.026 114.42 125.849 114.602 125.633 114.725C125.416 114.848 125.169 114.907 124.92 114.896C122.901 114.478 120.916 113.905 118.984 113.184C118.674 113.1 118.387 112.945 118.147 112.731C117.906 112.518 117.719 112.251 117.6 111.952C120.497 112.499 123.353 113.25 126.144 114.2Z" fill="white"/>
<path d="M105.312 110.28C105.534 111.143 105.925 111.954 106.463 112.664C107.002 113.374 107.677 113.97 108.448 114.416C110.52 115.608 112.16 113.896 112.088 111.64C112.024 109.608 110.872 106.544 108.544 106.28C106.216 106.016 104.8 108.144 105.312 110.28Z" fill="#FFB573"/>
<path d="M120.744 105.328C120.8 105.96 121.176 106.448 121.592 106.408C122.008 106.368 122.304 105.824 122.248 105.192C122.192 104.56 121.816 104.072 121.4 104.104C120.984 104.136 120.688 104.696 120.744 105.328Z" fill="#EF3054"/>
<path d="M127.928 105.144C127.984 105.776 128.36 106.264 128.776 106.224C129.192 106.184 129.488 105.64 129.432 105C129.376 104.36 129 103.888 128.584 103.92C128.168 103.952 127.88 104.504 127.928 105.144Z" fill="#EF3054"/>
<path d="M126.176 106C126.176 106 127.928 109.528 129.672 111.152C128.632 112.304 126.68 112 126.68 112L126.176 106Z" fill="#ED893E"/>
<path d="M122.672 103.72C122.714 103.769 122.744 103.826 122.76 103.888C122.779 103.986 122.758 104.087 122.703 104.169C122.647 104.252 122.561 104.309 122.464 104.328C121.886 104.471 121.282 104.473 120.703 104.334C120.123 104.194 119.586 103.918 119.136 103.528C119.101 103.494 119.073 103.454 119.054 103.409C119.035 103.365 119.025 103.317 119.025 103.268C119.025 103.219 119.035 103.171 119.054 103.127C119.073 103.082 119.101 103.042 119.136 103.008C119.171 102.972 119.213 102.944 119.259 102.925C119.305 102.906 119.354 102.896 119.404 102.896C119.454 102.896 119.503 102.906 119.549 102.925C119.595 102.944 119.637 102.972 119.672 103.008C120.033 103.313 120.461 103.529 120.921 103.637C121.381 103.746 121.861 103.744 122.32 103.632C122.381 103.616 122.446 103.615 122.507 103.631C122.569 103.646 122.626 103.677 122.672 103.72Z" fill="#F5F5F5"/>
<path d="M131.288 102.248C131.231 102.268 131.17 102.275 131.11 102.266C131.05 102.258 130.993 102.235 130.944 102.2C130.577 101.907 130.145 101.706 129.684 101.615C129.223 101.523 128.747 101.542 128.296 101.672C128.203 101.706 128.1 101.701 128.01 101.659C127.92 101.617 127.85 101.541 127.816 101.448C127.785 101.355 127.79 101.253 127.832 101.163C127.874 101.074 127.948 101.004 128.04 100.968C128.608 100.794 129.209 100.76 129.793 100.868C130.376 100.977 130.925 101.225 131.392 101.592C131.431 101.622 131.465 101.659 131.49 101.702C131.515 101.745 131.531 101.792 131.538 101.841C131.544 101.89 131.541 101.94 131.529 101.988C131.516 102.036 131.494 102.081 131.464 102.12C131.418 102.178 131.357 102.222 131.288 102.248Z" fill="#F5F5F5"/>
<path d="M108.8 130.568C108.912 130.736 110.144 132.632 111.896 135.512C113.661 137.147 115.828 138.284 118.176 138.808C117.824 137.648 118.864 133.728 120.016 132.52C117.32 132.672 113.6 132.208 108.8 130.568Z" fill="#FAFAFA"/>
<path d="M120.056 132.536C121.298 133.081 122.416 133.871 123.344 134.86C124.272 135.848 124.991 137.014 125.456 138.288C125.935 138.078 126.364 137.77 126.717 137.384C127.069 136.999 127.337 136.543 127.504 136.048C127.281 134.106 126.481 132.275 125.208 130.792C124.576 131.6 122.864 132.384 120.056 132.536Z" fill="#FAFAFA"/>
<path d="M104.584 144.288L102.784 147.296L100.976 150.4C99.776 152.456 98.64 154.544 97.552 156.6C96.464 158.656 95.496 160.736 94.696 162.704C94.296 163.688 93.984 164.656 93.728 165.504C93.5528 166.116 93.4192 166.738 93.328 167.368C93.4575 168.943 93.9386 170.468 94.736 171.832C95.7754 173.765 96.9686 175.611 98.304 177.352C101.218 181.128 104.338 184.741 107.648 188.176L107.752 188.288C108.307 188.878 108.634 189.647 108.673 190.457C108.713 191.266 108.462 192.063 107.967 192.705C107.472 193.347 106.765 193.791 105.971 193.958C105.178 194.125 104.352 194.003 103.64 193.616C101.313 192.336 99.0691 190.912 96.92 189.352C94.7446 187.786 92.6686 186.087 90.704 184.264C88.6151 182.337 86.7207 180.21 85.048 177.912C84.137 176.618 83.3343 175.25 82.648 173.824C81.8348 172.142 81.2947 170.34 81.048 168.488C80.8647 166.619 80.9455 164.734 81.288 162.888C81.5542 161.388 81.9203 159.907 82.384 158.456C83.2133 155.811 84.2182 153.224 85.392 150.712C86.496 148.256 87.728 145.912 89 143.616C89.656 142.472 90.304 141.328 90.992 140.216C91.68 139.104 92.36 138.024 93.168 136.832C94.1477 135.329 95.6805 134.272 97.4341 133.892C99.1876 133.512 101.02 133.839 102.535 134.801C104.049 135.764 105.123 137.284 105.523 139.033C105.923 140.783 105.617 142.619 104.672 144.144L104.584 144.288Z" fill="#EF3054"/>
<path d="M167.088 135.32C167.062 134.051 167.229 132.786 167.584 131.568C169.64 131.016 175.216 134.928 176.064 136.72C175.704 137.752 173.344 139.92 173.344 139.92C171.592 138.32 168.44 136.464 167.088 135.32Z" fill="#E0E0E0"/>
<path d="M171.144 203.552H73.008V196.888L171.144 188.888V203.552Z" fill="#111B39"/>
<path d="M156.472 332.992H87.672L79.672 203.552H164.472L156.472 332.992Z" fill="#111B39"/>
<path d="M122.417 287.468C134.049 287.271 143.318 277.682 143.121 266.051C142.924 254.419 133.335 245.149 121.704 245.346C110.072 245.543 100.802 255.132 100.999 266.764C101.196 278.395 110.785 287.665 122.417 287.468Z" fill="white"/>
<path opacity="0.2" d="M163.872 213.344L79.848 206.336L79.672 203.552H164.472L163.872 213.344Z" fill="black"/>
<path d="M101.344 189.68C101.31 189.31 101.406 188.939 101.616 188.632L103.424 185.96C103.595 185.702 103.837 185.498 104.121 185.375C104.405 185.251 104.719 185.213 105.024 185.264L107.728 185.68C110.351 186.081 112.856 187.044 115.072 188.504L115.8 188.984C116.1 189.181 116.357 189.437 116.557 189.735C116.757 190.033 116.895 190.369 116.964 190.721C117.033 191.074 117.03 191.436 116.957 191.788C116.883 192.139 116.74 192.473 116.536 192.768L114.656 195.504C114.292 196.031 113.753 196.412 113.134 196.577C112.516 196.743 111.858 196.683 111.28 196.408L107.76 194.752C107.76 194.752 101.688 193.048 101.344 189.68Z" fill="#FFB573"/>
<path d="M104.376 184C105.644 184.042 106.898 184.277 108.096 184.696C108.528 186.784 104.312 192.136 102.496 192.88C101.48 192.464 99.408 189.984 99.408 189.984C101.128 188.32 103.2 185.272 104.376 184Z" fill="#E0E0E0"/>
<path d="M164 187.248C163.93 187.246 163.861 187.226 163.801 187.19C163.741 187.153 163.691 187.102 163.656 187.041C163.622 186.98 163.604 186.911 163.604 186.841C163.603 186.77 163.622 186.701 163.656 186.64C163.896 186.24 169.392 176.776 159.4 170.448C159.31 170.391 159.246 170.3 159.223 170.196C159.2 170.091 159.219 169.982 159.276 169.892C159.333 169.802 159.424 169.738 159.528 169.715C159.633 169.692 159.742 169.711 159.832 169.768C170.48 176.52 164.408 186.944 164.344 187.048C164.308 187.108 164.258 187.158 164.198 187.193C164.138 187.228 164.07 187.247 164 187.248Z" fill="#EF3054"/>
<path d="M156.8 190.056L170.136 188.976C170.136 188.976 168.536 186.264 163.256 186.848C157.976 187.432 156.8 190.056 156.8 190.056Z" fill="#EF3054"/>
<path d="M160.232 170.472C160.047 170.732 159.766 170.909 159.451 170.963C159.137 171.017 158.813 170.944 158.552 170.76L156.608 169.376C156.348 169.191 156.171 168.91 156.117 168.596C156.063 168.281 156.136 167.957 156.32 167.696C156.505 167.436 156.786 167.259 157.101 167.205C157.415 167.151 157.739 167.224 158 167.408L159.952 168.792C160.211 168.978 160.386 169.26 160.438 169.574C160.491 169.889 160.417 170.212 160.232 170.472Z" fill="#EF3054"/>
<path d="M270.544 101.736C261.28 106.448 257.232 113.248 259.28 119.648C261.328 126.048 256.88 127.024 257.456 135.464C258.032 143.904 262.92 145.248 260.08 149.248C257.24 153.248 262.968 167.024 278.592 159.736C294.216 152.448 300.856 139.384 296.824 131.784C292.792 124.184 288.8 121.6 288.8 111.808C288.8 103.328 281.816 96 270.544 101.736Z" fill="#EF3054"/>
<path d="M225.032 156.368L225.76 157.608C226.05 158.091 226.443 158.506 226.91 158.822C227.377 159.139 227.907 159.349 228.464 159.44L234.752 160.432L237.328 158.376C235.848 155.4 231.592 153 231.592 153L230.464 152.2C229.993 151.864 229.426 151.692 228.848 151.71C228.27 151.727 227.714 151.933 227.264 152.296L225.368 154.048C225.046 154.332 224.835 154.721 224.773 155.146C224.711 155.571 224.803 156.004 225.032 156.368Z" fill="#FFC3BD"/>
<path d="M266.48 151.088C265.64 153.016 264.752 154.712 263.824 156.488C262.896 158.264 261.896 159.952 260.84 161.64C259.784 163.328 258.672 164.992 257.504 166.624C256.336 168.256 255.056 169.824 253.736 171.384L253.6 171.544C253.333 171.862 253.014 172.133 252.656 172.344C251.848 172.793 250.964 173.086 250.048 173.208C249.251 173.318 248.441 173.305 247.648 173.168C246.402 172.938 245.202 172.506 244.096 171.888C242.341 170.882 240.726 169.647 239.296 168.216C237.979 166.923 236.752 165.541 235.624 164.08C234.499 162.653 233.465 161.157 232.528 159.6C232.251 159.15 232.146 158.615 232.233 158.094C232.319 157.573 232.591 157.1 232.998 156.763C233.405 156.426 233.919 156.248 234.448 156.26C234.976 156.273 235.482 156.476 235.872 156.832L235.944 156.896C237.152 157.984 238.432 159.128 239.696 160.176C240.96 161.224 242.248 162.248 243.544 163.136C244.708 163.986 245.967 164.698 247.296 165.256C247.724 165.439 248.183 165.54 248.648 165.552C248.944 165.552 248.8 165.448 248.648 165.504L247.536 166.4C249.636 163.427 251.577 160.345 253.352 157.168C254.248 155.568 255.136 153.968 255.992 152.304C256.848 150.64 257.696 148.984 258.472 147.432L258.512 147.344C258.756 146.819 259.102 146.347 259.528 145.955C259.955 145.563 260.455 145.259 260.999 145.06C261.543 144.862 262.121 144.772 262.7 144.797C263.278 144.821 263.847 144.96 264.372 145.204C264.897 145.448 265.369 145.793 265.761 146.22C266.153 146.647 266.457 147.147 266.656 147.691C266.854 148.235 266.944 148.813 266.919 149.392C266.895 149.97 266.756 150.539 266.512 151.064L266.48 151.088Z" fill="#FFC3BD"/>
<path d="M270.4 139.408C258.536 137.144 249.6 158.24 249.248 162.968C249.648 167.248 257.248 167.536 257.248 167.536C257.248 167.536 273.672 154.624 270.4 139.408Z" fill="#111B39"/>
<path d="M258.656 167.28C258.192 167.825 257.653 168.302 257.056 168.696C257.008 168.726 256.953 168.745 256.896 168.752C256.192 168.808 251.296 169.08 248.4 165.408C248.35 165.35 248.322 165.276 248.32 165.2C248.276 164.144 248.439 163.089 248.8 162.096C248.82 162.04 248.853 161.99 248.897 161.95C248.94 161.909 248.992 161.88 249.049 161.863C249.106 161.847 249.166 161.844 249.224 161.856C249.283 161.867 249.337 161.892 249.384 161.928C250.608 162.864 254.504 165.664 258.44 166.664C258.505 166.676 258.566 166.705 258.616 166.748C258.667 166.791 258.705 166.847 258.727 166.909C258.749 166.972 258.754 167.039 258.741 167.104C258.729 167.169 258.699 167.23 258.656 167.28Z" fill="white"/>
<path d="M299.2 201.864C299.2 201.864 293.424 189.712 293.264 181.864C288.224 181.864 259.376 180.648 258.6 187.168C258.648 187.592 258.08 196.448 257.312 197.976C262.352 207.448 283.2 205.32 299.2 201.864Z" fill="#111B39"/>
<path opacity="0.4" d="M299.2 201.864C299.2 201.864 293.424 189.712 293.264 181.864C288.224 181.864 259.376 180.648 258.6 187.168C258.648 187.592 258.08 196.448 257.312 197.976C262.352 207.448 283.2 205.32 299.2 201.864Z" fill="black"/>
<path d="M256.752 151.48C256.702 156.287 256.894 161.093 257.328 165.88C257.96 176.36 257.6 184.28 258.272 188.336C260.914 189.603 263.762 190.386 266.68 190.648C267.208 189.659 267.864 188.744 268.632 187.928C269.36 188.512 271.632 190.176 273 190.376C279.272 189.904 291.104 188.12 294.144 185.368C292.672 176.568 290.944 168.704 296.088 148.568C296.39 147.516 296.452 146.409 296.272 145.329C296.092 144.25 295.673 143.223 295.046 142.326C294.419 141.429 293.6 140.682 292.648 140.141C291.696 139.601 290.636 139.279 289.544 139.2C288.296 139.104 286.968 139.032 285.608 139C280.832 138.785 276.046 138.911 271.288 139.376C269.736 139.56 268.128 139.792 266.592 140.048C263.881 140.518 261.418 141.915 259.623 144C257.828 146.086 256.813 148.729 256.752 151.48Z" fill="#111B39"/>
<path opacity="0.2" d="M289.992 151.448C290.419 156.087 291.422 160.656 292.976 165.048C293.24 162.424 293.68 159.504 294.344 156.184L289.992 151.448Z" fill="black"/>
<path d="M285.68 191.936L286.36 190.672C286.629 190.177 287.003 189.747 287.457 189.412C287.91 189.078 288.432 188.847 288.984 188.736L295.224 187.488L297.888 189.44C296.528 192.472 292.368 195.04 292.368 195.04L291.272 195.84C290.812 196.19 290.25 196.38 289.672 196.38C289.094 196.38 288.532 196.19 288.072 195.84L286.112 194.168C285.795 193.901 285.58 193.535 285.501 193.128C285.423 192.722 285.486 192.301 285.68 191.936Z" fill="#FFC3BD"/>
<path d="M299.072 148.2C299.448 148.696 299.736 149.088 300.04 149.52C300.344 149.952 300.624 150.376 300.912 150.808C301.48 151.672 302.016 152.536 302.512 153.416C303.552 155.176 304.504 156.989 305.368 158.856C306.25 160.729 307.022 162.653 307.68 164.616C308.367 166.619 308.918 168.666 309.328 170.744L309.368 170.936V171.04V171.232C309.409 171.497 309.436 171.764 309.448 172.032C309.48 172.466 309.48 172.902 309.448 173.336C309.376 174.072 309.228 174.798 309.008 175.504C308.631 176.664 308.135 177.782 307.528 178.84C306.464 180.683 305.232 182.424 303.848 184.04C301.242 187.104 298.346 189.909 295.2 192.416C294.785 192.753 294.261 192.927 293.726 192.904C293.192 192.882 292.684 192.665 292.299 192.294C291.913 191.924 291.677 191.425 291.633 190.892C291.59 190.359 291.743 189.828 292.064 189.4L292.112 189.344C294.344 186.352 296.568 183.224 298.472 180.136C299.4 178.665 300.218 177.127 300.92 175.536C301.203 174.882 301.421 174.201 301.568 173.504C301.609 173.28 301.628 173.052 301.624 172.824C301.624 172.752 301.624 172.696 301.624 172.688C301.624 172.68 301.624 172.688 301.624 172.728V172.648L301.576 172.496C301.078 170.828 300.496 169.186 299.832 167.576C299.128 165.936 298.4 164.304 297.56 162.712C296.72 161.12 295.856 159.512 294.92 157.976C294.456 157.176 293.984 156.432 293.488 155.68L292.752 154.56L292.048 153.528L291.928 153.352C291.248 152.406 290.972 151.228 291.16 150.078C291.348 148.928 291.986 147.9 292.932 147.22C293.878 146.54 295.056 146.264 296.206 146.452C297.356 146.64 298.384 147.278 299.064 148.224L299.072 148.2Z" fill="#FFC3BD"/>
<path d="M288.992 139.152C300.992 137.896 308.104 159.672 308.072 164.416C307.312 168.64 299.688 168.288 299.688 168.288C299.688 168.288 284.464 154.032 288.992 139.152Z" fill="#111B39"/>
<path d="M270.664 149.168C270.558 149.18 270.452 149.149 270.368 149.082C270.285 149.015 270.232 148.918 270.22 148.812C270.208 148.706 270.239 148.6 270.306 148.516C270.373 148.433 270.47 148.38 270.576 148.368C273.684 147.191 276.542 145.438 279 143.2C279.037 143.162 279.081 143.133 279.13 143.112C279.179 143.092 279.231 143.082 279.284 143.082C279.337 143.082 279.389 143.092 279.438 143.112C279.487 143.133 279.531 143.162 279.568 143.2C279.605 143.236 279.635 143.28 279.655 143.328C279.675 143.376 279.686 143.428 279.686 143.48C279.686 143.532 279.675 143.584 279.655 143.632C279.635 143.68 279.605 143.723 279.568 143.76C277.013 146.124 274.025 147.971 270.768 149.2L270.664 149.168Z" fill="#EF3054"/>
<path d="M269.408 148.56C269.352 148.559 269.297 148.546 269.246 148.523C269.195 148.499 269.149 148.466 269.112 148.424C268.184 147.392 267.032 144.024 268.424 140.592C268.463 140.493 268.54 140.414 268.638 140.372C268.735 140.33 268.845 140.329 268.944 140.368C269.043 140.407 269.122 140.484 269.164 140.582C269.206 140.679 269.207 140.789 269.168 140.888C268.687 142.012 268.484 143.235 268.577 144.454C268.671 145.673 269.057 146.851 269.704 147.888C269.757 147.945 269.792 148.017 269.805 148.094C269.818 148.171 269.808 148.25 269.777 148.321C269.745 148.393 269.694 148.453 269.628 148.496C269.563 148.538 269.486 148.56 269.408 148.56Z" fill="#EF3054"/>
<path d="M283.112 122.824C282.384 127.544 281.744 136.016 284.816 139.016C284.816 139.016 280.44 138.472 271.32 144.44C268.536 140.664 270.52 139.384 270.52 139.384C275.72 138.024 275.688 134.808 274.672 131.32L283.112 122.824Z" fill="#FFC3BD"/>
<path d="M273.24 143.24C276.304 143.592 277.376 148.176 277.376 148.176C277.376 148.176 284.576 142.808 286.8 139.088C285.866 138.602 284.958 138.068 284.08 137.488C284.08 137.488 274.976 141.432 273.24 143.24Z" fill="white"/>
<path d="M270.328 142.824C270.328 142.824 267.704 143.624 266.848 147.336C265.976 140.632 269.088 139.408 269.088 139.408C269.914 138.92 270.89 138.752 271.832 138.936C271.168 139.308 270.655 139.9 270.381 140.609C270.106 141.319 270.088 142.102 270.328 142.824Z" fill="white"/>
<path opacity="0.2" d="M279.664 126.288L274.648 131.312C274.9 132.129 275.077 132.967 275.176 133.816C277.12 133.312 279.72 130.856 279.856 128.776C279.937 127.942 279.872 127.1 279.664 126.288Z" fill="black"/>
<path d="M286 113.2C285.432 120.744 285.352 123.944 281.528 127.96C275.768 134.008 266.736 132.152 265.064 124.704C263.56 118 264.744 106.776 272.088 103.488C273.643 102.726 275.374 102.394 277.1 102.527C278.827 102.659 280.487 103.252 281.906 104.244C283.326 105.235 284.455 106.588 285.175 108.163C285.895 109.738 286.18 111.478 286 113.2Z" fill="#FFC3BD"/>
<path d="M280.544 105C274.944 111.592 287.056 116.6 287.864 124.136C288.896 115.2 286.816 99.912 280.544 105Z" fill="#EF3054"/>
<path d="M284.168 105.424C276.384 107.464 274.176 106.712 272.432 106.488C270.568 108.512 258.832 113.184 260.744 106.8C261.608 103.864 266.696 96.536 275.984 96.624C285.272 96.712 291.856 103.424 284.168 105.424Z" fill="#EF3054"/>
<path opacity="0.2" d="M281.288 106.312H281.232C281.206 106.305 281.182 106.292 281.16 106.275C281.139 106.258 281.122 106.237 281.109 106.213C281.096 106.189 281.089 106.163 281.086 106.136C281.084 106.109 281.087 106.082 281.096 106.056C281.528 104.632 281.032 103.128 279.696 101.816C277.448 99.616 272.896 98.12 268.536 99.528C268.511 99.538 268.485 99.5425 268.459 99.5412C268.432 99.54 268.406 99.5331 268.383 99.5209C268.359 99.5088 268.338 99.4917 268.322 99.4708C268.306 99.4499 268.294 99.4258 268.288 99.4C268.279 99.3754 268.276 99.3492 268.278 99.3231C268.279 99.2971 268.287 99.2717 268.299 99.2484C268.311 99.2252 268.327 99.2047 268.347 99.1881C268.368 99.1715 268.391 99.1593 268.416 99.152C272.92 97.688 277.64 99.248 279.976 101.552C281.424 102.968 281.952 104.616 281.48 106.192C281.464 106.229 281.437 106.26 281.403 106.282C281.368 106.303 281.328 106.314 281.288 106.312Z" fill="white"/>
<path opacity="0.2" d="M284.56 105.36C284.508 105.352 284.462 105.324 284.43 105.282C284.399 105.24 284.385 105.188 284.392 105.136C284.728 103.024 283.056 100.984 280.136 99.9359C280.111 99.9276 280.087 99.9142 280.067 99.8966C280.047 99.879 280.03 99.8575 280.019 99.8335C280.007 99.8094 280 99.7833 279.999 99.7566C279.998 99.7299 280.002 99.7031 280.011 99.678C280.02 99.6528 280.034 99.6298 280.052 99.6102C280.07 99.5905 280.092 99.5747 280.116 99.5637C280.141 99.5527 280.167 99.5467 280.194 99.5461C280.221 99.5454 280.247 99.5501 280.272 99.5599C283.376 100.672 285.152 102.888 284.792 105.2C284.78 105.251 284.75 105.296 284.707 105.325C284.664 105.355 284.612 105.367 284.56 105.36Z" fill="white"/>
<path d="M274.4 115.728C274.4 116.368 274.032 116.896 273.6 116.912C273.168 116.928 272.88 116.416 272.904 115.784C272.928 115.152 273.272 114.624 273.704 114.608C274.136 114.592 274.44 115.096 274.4 115.728Z" fill="#EF3054"/>
<path d="M266.816 116.12C266.816 116.76 266.456 117.288 266.016 117.304C265.576 117.32 265.304 116.816 265.32 116.176C265.336 115.536 265.688 115.016 266.12 115C266.552 114.984 266.84 115.488 266.816 116.12Z" fill="#EF3054"/>
<path d="M266.304 115.024L264.8 114.64C264.8 114.64 265.552 115.808 266.304 115.024Z" fill="#EF3054"/>
<path d="M268.904 117.088C268.306 118.561 267.521 119.951 266.568 121.224C266.885 121.457 267.252 121.612 267.639 121.678C268.027 121.743 268.424 121.716 268.8 121.6L268.904 117.088Z" fill="#ED847E"/>
<path d="M272.064 123.592C271.714 123.607 271.363 123.591 271.016 123.544C270.992 123.543 270.968 123.536 270.947 123.524C270.925 123.512 270.907 123.495 270.893 123.475C270.879 123.455 270.87 123.432 270.866 123.408C270.863 123.384 270.865 123.359 270.872 123.336C270.882 123.287 270.909 123.244 270.949 123.214C270.989 123.185 271.039 123.171 271.088 123.176C271.872 123.284 272.67 123.214 273.423 122.971C274.177 122.729 274.866 122.32 275.44 121.776C275.456 121.759 275.475 121.745 275.496 121.735C275.517 121.725 275.54 121.719 275.564 121.718C275.587 121.717 275.61 121.72 275.632 121.728C275.654 121.736 275.675 121.748 275.692 121.764C275.709 121.78 275.723 121.799 275.733 121.82C275.743 121.841 275.749 121.864 275.75 121.887C275.751 121.911 275.748 121.934 275.74 121.956C275.732 121.978 275.72 121.999 275.704 122.016C274.724 122.968 273.429 123.528 272.064 123.592Z" fill="#EF3054"/>
<path d="M287.336 120.968C286.993 121.607 286.519 122.166 285.946 122.61C285.372 123.053 284.712 123.372 284.008 123.544C282.256 123.896 281.608 121.872 282.32 119.928C282.952 118.176 284.616 115.88 286.32 116.416C288.024 116.952 288.312 119.28 287.336 120.968Z" fill="#FFC3BD"/>
<path d="M275.2 111.72C275.152 111.719 275.104 111.707 275.061 111.684C275.018 111.662 274.981 111.631 274.952 111.592C274.682 111.232 274.328 110.943 273.921 110.752C273.514 110.561 273.065 110.473 272.616 110.496C272.57 110.503 272.522 110.5 272.477 110.487C272.432 110.475 272.389 110.454 272.353 110.425C272.316 110.395 272.286 110.359 272.263 110.318C272.241 110.276 272.228 110.231 272.224 110.184C272.221 110.083 272.255 109.985 272.32 109.909C272.385 109.832 272.476 109.782 272.576 109.768C273.144 109.725 273.713 109.825 274.232 110.06C274.751 110.295 275.202 110.657 275.544 111.112C275.601 111.192 275.625 111.291 275.61 111.388C275.595 111.485 275.543 111.573 275.464 111.632C275.39 111.694 275.296 111.725 275.2 111.72Z" fill="#EF3054"/>
<path d="M264.592 112.8C264.546 112.805 264.5 112.8 264.456 112.787C264.412 112.773 264.371 112.75 264.336 112.72C264.302 112.686 264.275 112.647 264.257 112.603C264.239 112.559 264.229 112.512 264.229 112.464C264.229 112.416 264.239 112.369 264.257 112.325C264.275 112.281 264.302 112.241 264.336 112.208C264.708 111.74 265.183 111.363 265.724 111.108C266.265 110.853 266.858 110.725 267.456 110.736C267.503 110.74 267.549 110.753 267.591 110.776C267.633 110.799 267.669 110.83 267.698 110.868C267.727 110.905 267.747 110.949 267.758 110.995C267.768 111.041 267.769 111.089 267.76 111.136C267.743 111.234 267.69 111.322 267.612 111.384C267.534 111.446 267.436 111.477 267.336 111.472C266.863 111.47 266.395 111.576 265.97 111.783C265.544 111.989 265.171 112.291 264.88 112.664C264.844 112.705 264.799 112.738 264.75 112.761C264.7 112.785 264.647 112.798 264.592 112.8Z" fill="#EF3054"/>
<path d="M273.904 114.632L272.432 114.248C272.432 114.248 273.16 115.416 273.904 114.632Z" fill="#EF3054"/>
<path d="M270.096 145.976C270.677 146.046 271.251 146.172 271.808 146.352C271.949 146.397 272.072 146.487 272.157 146.609C272.242 146.73 272.285 146.876 272.28 147.024C272.28 147.696 272.232 148.904 272.28 149.504C272.28 150.352 269.656 151.224 269.656 151.224C269.656 151.224 268.144 149.808 268.464 148.672C268.715 147.875 269.028 147.1 269.4 146.352C269.464 146.226 269.565 146.123 269.689 146.055C269.814 145.988 269.956 145.961 270.096 145.976Z" fill="#EF3054"/>
<path d="M270.536 172C269.52 164.312 270.232 149.6 271.152 149.84C270.568 149.68 269.992 149.504 269.408 149.328C267.616 151.128 264.8 160.912 264.16 171.928C264.883 175.367 266.478 178.563 268.792 181.208C268.744 181.16 269.744 176.104 270.536 172Z" fill="#EF3054"/>
<path d="M298.4 167.912C298.81 168.495 299.3 169.018 299.856 169.464C299.901 169.497 299.953 169.518 300.008 169.528C300.704 169.648 305.608 170.328 308.752 166.92C308.808 166.866 308.844 166.796 308.856 166.72C308.992 165.673 308.919 164.61 308.64 163.592C308.627 163.533 308.6 163.478 308.561 163.432C308.522 163.386 308.472 163.351 308.416 163.329C308.36 163.307 308.299 163.299 308.239 163.305C308.179 163.312 308.122 163.334 308.072 163.368C306.768 164.168 302.656 166.656 298.648 167.32C298.584 167.33 298.524 167.356 298.473 167.395C298.423 167.435 298.383 167.487 298.358 167.546C298.333 167.606 298.324 167.671 298.331 167.735C298.339 167.799 298.362 167.86 298.4 167.912Z" fill="white"/>
<path d="M228.856 203.552H326.992V196.888L228.856 188.888V203.552Z" fill="#EF3054"/>
<path d="M243.52 332.992H312.32L320.32 203.552H235.52L243.52 332.992Z" fill="#EF3054"/>
<path d="M298.968 266.746C299.165 255.115 289.895 245.526 278.263 245.329C266.632 245.132 257.043 254.401 256.846 266.033C256.649 277.665 265.918 287.254 277.55 287.451C289.182 287.648 298.771 278.378 298.968 266.746Z" fill="white"/>
<path opacity="0.2" d="M236.128 213.344L320.152 206.336L320.32 203.552H235.52L236.128 213.344Z" fill="black"/>
<path d="M236 187.248C235.93 187.247 235.862 187.228 235.802 187.193C235.742 187.158 235.692 187.108 235.656 187.048C235.592 186.944 229.52 176.52 240.168 169.768C240.212 169.739 240.262 169.719 240.314 169.71C240.366 169.701 240.42 169.702 240.471 169.714C240.523 169.726 240.572 169.748 240.614 169.78C240.657 169.811 240.693 169.85 240.72 169.896C240.777 169.985 240.797 170.093 240.774 170.197C240.752 170.3 240.689 170.391 240.6 170.448C230.6 176.784 236.104 186.24 236.344 186.64C236.378 186.701 236.397 186.77 236.396 186.841C236.396 186.911 236.378 186.98 236.344 187.041C236.309 187.102 236.259 187.153 236.199 187.19C236.139 187.226 236.07 187.246 236 187.248Z" fill="#EF3054"/>
<path d="M243.2 190.056L229.864 188.976C229.864 188.976 231.464 186.264 236.744 186.848C242.024 187.432 243.2 190.056 243.2 190.056Z" fill="#EF3054"/>
<path d="M239.768 170.472C239.953 170.732 240.234 170.909 240.549 170.963C240.863 171.017 241.187 170.944 241.448 170.76L243.392 169.376C243.652 169.191 243.829 168.91 243.883 168.595C243.937 168.281 243.864 167.957 243.68 167.696C243.495 167.436 243.214 167.259 242.899 167.205C242.585 167.151 242.261 167.224 242 167.408L240.048 168.8C239.791 168.986 239.618 169.266 239.565 169.579C239.513 169.891 239.586 170.212 239.768 170.472Z" fill="#EF3054"/>
</svg>
