<svg width="297" height="50" viewBox="0 0 297 50" fill="none" xmlns="http://www.w3.org/2000/svg">
<path d="M1.30859 24.0781C1.30859 21.1094 1.73828 18.4792 2.59766 16.1875C3.45703 13.8828 4.8112 12.0664 6.66016 10.7383C8.52214 9.39714 10.8854 8.72656 13.75 8.72656C14.7656 8.72656 15.8659 8.79167 17.0508 8.92188C18.2357 9.03906 19.3945 9.22786 20.5273 9.48828C21.2305 9.90495 21.8424 10.3411 22.3633 10.7969C22.8971 11.2396 23.4049 11.7799 23.8867 12.418C23.8867 13.3424 23.763 14.5664 23.5156 16.0898C23.2682 17.6133 22.9557 19.0326 22.5781 20.3477C22.2135 21.6628 21.862 22.5156 21.5234 22.9062C21.1849 23.0755 20.8984 23.1927 20.6641 23.2578C20.4297 23.3099 20.0651 23.3359 19.5703 23.3359C18.9583 23.3359 18.3854 23.2904 17.8516 23.1992C17.3177 23.1081 16.9141 22.9844 16.6406 22.8281L15.957 16.2461C15.0326 15.9857 13.5547 15.8555 11.5234 15.8555C11.0807 15.8555 10.7552 15.862 10.5469 15.875C9.98698 17.6719 9.67448 20.0872 9.60938 23.1211V23.8828C9.60938 25.8229 9.73307 27.5352 9.98047 29.0195C10.1497 29.9961 10.293 30.7448 10.4102 31.2656C10.5404 31.7865 10.6966 32.1901 10.8789 32.4766C11.0742 32.75 11.3151 32.8867 11.6016 32.8867C12.6172 32.8867 13.5221 32.5352 14.3164 31.832C15.1237 31.1289 15.8138 30.2305 16.3867 29.1367L15.8594 26.3438C17.5651 25.7708 19.2513 25.4779 20.918 25.4648C21.7253 25.4648 22.4284 25.556 23.0273 25.7383C23.6263 25.9206 24.0299 26.2786 24.2383 26.8125C23.9909 28.7396 23.5938 31.1029 23.0469 33.9023C22.5 36.7018 22.0898 38.401 21.8164 39C20.9831 39.2604 20.1758 39.3906 19.3945 39.3906C18.9909 39.3906 18.5612 39.3581 18.1055 39.293C17.6628 39.2279 17.2721 39.1302 16.9336 39C16.9336 38.5703 16.8945 37.5482 16.8164 35.9336L16.7578 34.4883L16.2305 34.332C15.332 35.8424 14.3229 37.0664 13.2031 38.0039C12.0833 38.9284 10.8659 39.3906 9.55078 39.3906C7.85807 39.3906 6.39323 38.7656 5.15625 37.5156C3.91927 36.2656 2.96875 34.4883 2.30469 32.1836C1.64062 29.8659 1.30859 27.1641 1.30859 24.0781ZM26.3867 32.7305C27.181 32.9909 27.9036 33.1992 28.5547 33.3555C29.8177 28.2773 31.2565 22.2812 32.8711 15.3672L28.1641 14.8594C27.8646 14.0391 27.7148 13.1081 27.7148 12.0664C27.7148 11.2721 27.806 10.4974 27.9883 9.74219C29.8763 9.3776 32.0508 9.11719 34.5117 8.96094C36.9857 8.79167 39.1081 8.70703 40.8789 8.70703C42.1549 8.70703 43.112 8.71354 43.75 8.72656L44.9805 9.42969C47.168 15.4323 49.388 23.5508 51.6406 33.7852C51.6667 33.8893 51.7122 34.0977 51.7773 34.4102C51.8555 34.7227 51.9141 35.0221 51.9531 35.3086C51.9922 35.582 52.0117 35.8424 52.0117 36.0898C52.0117 37.1836 51.6211 38.069 50.8398 38.7461C49.7461 39.1758 48.4245 39.3906 46.875 39.3906C46.1458 39.3906 45.4102 39.3125 44.668 39.1562C43.9258 39 43.4245 38.7591 43.1641 38.4336L43.3984 33.3945L42.9102 30.7773C42.0638 30.8294 41.0677 30.8555 39.9219 30.8555C38.6979 30.8555 37.5521 30.8164 36.4844 30.7383L36.25 31.793C35.7422 34.0586 35.3255 35.6667 35 36.6172C34.6875 37.5677 34.2188 38.2708 33.5938 38.7266C32.9818 39.1823 32.0638 39.4102 30.8398 39.4102C30.0456 39.4102 29.2448 39.306 28.4375 39.0977C27.6302 38.9023 26.901 38.6354 26.25 38.2969C25.599 37.9583 25.1107 37.5938 24.7852 37.2031C24.7852 36.2656 24.9284 35.3737 25.2148 34.5273C25.5013 33.681 25.8919 33.082 26.3867 32.7305ZM40.0781 15.543H39.1797L37.7734 25.1719H42.1484L40.0781 15.543ZM55.8398 32.1055C56.9857 32.5612 57.9036 32.9128 58.5938 33.1602C59.2839 33.4076 60.0391 33.6224 60.8594 33.8047C61.6927 33.987 62.5195 34.0781 63.3398 34.0781C63.7044 34.0781 63.9648 34.0456 64.1211 33.9805C64.1602 33.9284 64.1927 33.8503 64.2188 33.7461C64.2578 33.6289 64.2773 33.5117 64.2773 33.3945C64.2773 33.1341 64.1276 32.9193 63.8281 32.75C63.3594 32.4896 62.526 32.0794 61.3281 31.5195C59.6875 30.7383 58.3854 30.0417 57.4219 29.4297C56.4714 28.8177 55.6641 28.0039 55 26.9883C54.349 25.9727 54.0234 24.6966 54.0234 23.1602C54.0234 20.9596 54.681 19.1953 55.9961 17.8672C57.3112 16.526 59.3945 15.8555 62.2461 15.8555C65.6445 15.8555 68.2878 16.2982 70.1758 17.1836C70.2669 17.5612 70.3125 18.0365 70.3125 18.6094C70.3125 19.7031 70.1432 20.8229 69.8047 21.9688C69.4661 23.1016 69.0234 23.9414 68.4766 24.4883C67.7344 24.2409 66.6862 23.8438 65.332 23.2969C64.3424 22.9062 63.5547 22.6068 62.9688 22.3984C62.3958 22.1771 61.8685 22.0208 61.3867 21.9297C61.1263 21.9948 60.918 22.151 60.7617 22.3984C60.6055 22.6328 60.5273 22.9128 60.5273 23.2383C60.5273 23.5247 60.612 23.7656 60.7812 23.9609C60.9505 24.1562 61.1393 24.3125 61.3477 24.4297C61.569 24.5339 61.8815 24.6771 62.2852 24.8594C62.4935 24.9505 62.6888 25.0352 62.8711 25.1133C63.0534 25.1784 63.2227 25.2435 63.3789 25.3086C64.3945 25.7383 65.1953 26.0898 65.7812 26.3633C66.3672 26.6367 66.9336 26.9622 67.4805 27.3398C68.4831 28.0299 69.2708 28.8177 69.8438 29.7031C70.4167 30.5885 70.7031 31.5586 70.7031 32.6133C70.7031 34.0716 70.2865 35.3346 69.4531 36.4023C68.6328 37.457 67.5781 38.2253 66.2891 38.707C65.612 38.9544 64.8698 39.1302 64.0625 39.2344C63.2682 39.3516 62.3372 39.4102 61.2695 39.4102C60.0065 39.4102 58.7044 39.1693 57.3633 38.6875C56.0352 38.1927 55.0195 37.3724 54.3164 36.2266C54.3294 35.4323 54.4336 34.7422 54.6289 34.1562C54.8372 33.5573 55.2409 32.8737 55.8398 32.1055ZM74.4727 28.2188C74.4727 26.0964 74.5052 24.1628 74.5703 22.418L72.4414 22.0469C72.2721 21.3958 72.1549 20.8229 72.0898 20.3281C72.0247 19.8333 71.9922 19.306 71.9922 18.7461L72.0312 18.3555C72.0703 18.1732 72.0898 18.0234 72.0898 17.9062L74.9219 17.2812C74.987 16.474 75.1367 15.5625 75.3711 14.5469C75.6055 13.5312 75.8529 12.7826 76.1133 12.3008C76.5299 11.9883 77.0312 11.7539 77.6172 11.5977C78.2031 11.4414 78.8346 11.3633 79.5117 11.3633C80.0846 11.3633 80.638 11.4219 81.1719 11.5391C81.7188 11.6432 82.194 11.7865 82.5977 11.9688C82.6367 12.4115 82.6562 12.9193 82.6562 13.4922C82.6562 14.4297 82.6107 15.4909 82.5195 16.6758L85.957 16.0508C86.4388 16.8841 86.6797 17.7891 86.6797 18.7656C86.6797 19.4427 86.5951 20.0547 86.4258 20.6016C86.2695 21.1484 86.0482 21.7669 85.7617 22.457C84.9023 22.6003 83.724 22.6914 82.2266 22.7305C82.0443 24.8529 81.6406 27.9714 81.0156 32.0859L80.918 32.75L80.957 32.7891L85.5469 31.3633C86.4974 32.1576 87.0768 33.3815 87.2852 35.0352C87.2852 35.1263 86.862 35.556 86.0156 36.3242C85.1823 37.0794 84.1341 37.7826 82.8711 38.4336C81.6081 39.0716 80.2344 39.3906 78.75 39.3906C76.1589 39.3906 74.7786 37.8086 74.6094 34.6445C74.5182 33.043 74.4727 30.901 74.4727 28.2188ZM88.6133 27.6523C88.6133 25.3997 88.9909 23.388 89.7461 21.6172C90.5013 19.8464 91.6667 18.4466 93.2422 17.418C94.8307 16.3763 96.8099 15.8555 99.1797 15.8555C100.417 15.8555 101.654 16.0052 102.891 16.3047C104.128 16.5911 105.176 17.0729 106.035 17.75C106.829 18.388 107.402 19.2344 107.754 20.2891C108.118 21.3307 108.301 22.4896 108.301 23.7656C108.301 24.612 108.229 25.4779 108.086 26.3633C107.93 26.6237 107.624 26.9688 107.168 27.3984C106.712 27.8151 106.178 28.2253 105.566 28.6289C104.954 29.0326 104.362 29.3451 103.789 29.5664C103.242 29.6055 102.676 29.625 102.09 29.625C101.061 29.625 100.02 29.5794 98.9648 29.4883C97.9102 29.3971 96.9857 29.293 96.1914 29.1758C96.2956 30.2826 96.6341 31.2461 97.207 32.0664C97.7799 32.8867 98.6914 33.2969 99.9414 33.2969C100.059 33.2969 100.247 33.2839 100.508 33.2578C101.302 33.1797 102.227 32.9714 103.281 32.6328C104.349 32.2812 105.41 31.8776 106.465 31.4219C106.96 31.9167 107.324 32.4115 107.559 32.9062C107.793 33.401 107.956 34.1107 108.047 35.0352C107.643 35.5039 106.986 36.0768 106.074 36.7539C105.176 37.431 104.076 38.043 102.773 38.5898C101.471 39.1237 100.111 39.3906 98.6914 39.3906C96.556 39.3906 94.7266 38.8763 93.2031 37.8477C91.6927 36.806 90.5469 35.3997 89.7656 33.6289C88.9974 31.8451 88.6133 29.8529 88.6133 27.6523ZM101.191 23.1602C101.009 22.9648 100.703 22.8151 100.273 22.7109C99.8438 22.5938 99.3945 22.5352 98.9258 22.5352C98.5482 22.5352 98.1641 22.5677 97.7734 22.6328C97.3958 22.6979 97.168 22.7695 97.0898 22.8477C96.6471 23.7201 96.3672 24.7096 96.25 25.8164L101.465 25.3086L101.191 23.1602ZM112.734 32.2031C112.734 30.0807 112.76 28.4792 112.812 27.3984C112.865 26.3047 113.001 24.7031 113.223 22.5938L110.977 22.3008C110.703 21.4544 110.521 20.6992 110.43 20.0352C110.352 19.3711 110.312 18.5117 110.312 17.457C110.521 17.2747 110.866 17.0599 111.348 16.8125C111.842 16.5521 112.422 16.3307 113.086 16.1484C113.763 15.9531 114.447 15.8555 115.137 15.8555C116.712 15.8555 117.826 16.194 118.477 16.8711C119.141 17.5482 119.473 18.5638 119.473 19.918C119.473 20.6732 119.362 21.6953 119.141 22.9844C118.776 25.0547 118.594 26.1419 118.594 26.2461C118.594 26.3112 118.639 26.3763 118.73 26.4414C118.822 26.4935 118.919 26.5195 119.023 26.5195C119.141 26.5195 119.219 26.474 119.258 26.3828C119.245 26.4349 119.395 25.7773 119.707 24.4102C120.085 22.6133 120.469 21.1484 120.859 20.0156C121.263 18.8828 121.901 17.9128 122.773 17.1055C123.646 16.2982 124.831 15.8945 126.328 15.8945C128.177 15.8945 129.512 16.4284 130.332 17.4961C131.152 18.5508 131.562 19.957 131.562 21.7148C131.562 23.1081 131.328 24.6576 130.859 26.3633C130.859 26.4284 130.905 26.4935 130.996 26.5586C131.087 26.6107 131.185 26.6367 131.289 26.6367C131.406 26.6367 131.484 26.5911 131.523 26.5L131.797 25.4062C132.266 23.4792 132.728 21.8776 133.184 20.6016C133.652 19.3255 134.349 18.2253 135.273 17.3008C136.211 16.3633 137.428 15.8945 138.926 15.8945C140.892 15.8945 142.305 16.526 143.164 17.7891C144.036 19.0521 144.473 20.6406 144.473 22.5547C144.473 23.9089 144.342 25.2695 144.082 26.6367C143.835 28.0039 143.568 29.1497 143.281 30.0742C143.008 30.9987 142.669 32.0664 142.266 33.2773L142.305 33.3164L145.195 32.1055C146.211 32.9779 146.803 34.1367 146.973 35.582C146.973 35.6732 146.68 36.0508 146.094 36.7148C145.508 37.3659 144.733 37.9779 143.77 38.5508C142.819 39.1107 141.725 39.3906 140.488 39.3906C139.251 39.3906 138.242 39.0586 137.461 38.3945C136.68 37.7305 136.289 36.5977 136.289 34.9961C136.289 33.2122 136.322 31.3828 136.387 29.5078C136.465 27.6198 136.576 25.9271 136.719 24.4297C136.497 24.2474 136.191 24.1497 135.801 24.1367C135.41 24.5143 134.922 25.3411 134.336 26.6172C133.75 27.8802 133.21 29.2344 132.715 30.6797C132.22 32.112 131.908 33.2318 131.777 34.0391C131.96 35.3151 132.24 36.5781 132.617 37.8281C132.383 38.2708 131.901 38.6419 131.172 38.9414C130.443 39.2409 129.544 39.3906 128.477 39.3906C127.513 39.3906 126.758 39.3125 126.211 39.1562C125.664 39 125.286 38.8372 125.078 38.668C124.883 38.4987 124.785 38.388 124.785 38.3359C124.772 38.2188 124.74 37.9128 124.688 37.418C124.635 36.9102 124.583 36.207 124.531 35.3086C124.479 34.3971 124.453 33.362 124.453 32.2031C124.453 31.0964 124.538 29.7096 124.707 28.043C124.72 27.8346 124.759 27.3398 124.824 26.5586C124.889 25.7773 124.922 25.0677 124.922 24.4297C124.701 24.2474 124.395 24.1497 124.004 24.1367C123.783 24.306 123.164 25.3867 122.148 27.3789C121.133 29.3711 120.456 30.7773 120.117 31.5977C120.091 31.7799 120.078 31.9557 120.078 32.125C120.078 32.776 120.176 33.6549 120.371 34.7617C120.566 35.8555 120.807 36.8776 121.094 37.8281C120.859 38.2708 120.378 38.6419 119.648 38.9414C118.919 39.2409 118.021 39.3906 116.953 39.3906C115.99 39.3906 115.215 39.3125 114.629 39.1562C114.056 39 113.652 38.8372 113.418 38.668C113.184 38.4857 113.066 38.375 113.066 38.3359C113.053 38.2188 113.021 37.9128 112.969 37.418C112.917 36.9102 112.865 36.207 112.812 35.3086C112.76 34.3971 112.734 33.362 112.734 32.2031ZM150.078 32.2031C150.078 30.0807 150.104 28.4792 150.156 27.3984C150.208 26.3047 150.345 24.7031 150.566 22.5938L148.32 22.3008C148.047 21.4544 147.865 20.6992 147.773 20.0352C147.695 19.3711 147.656 18.5117 147.656 17.457C147.865 17.2747 148.21 17.0599 148.691 16.8125C149.186 16.5521 149.766 16.3307 150.43 16.1484C151.107 15.9531 151.79 15.8555 152.48 15.8555C154.056 15.8555 155.169 16.194 155.82 16.8711C156.484 17.5482 156.816 18.5638 156.816 19.918C156.816 20.6732 156.706 21.6953 156.484 22.9844C156.12 25.0547 155.938 26.1419 155.938 26.2461C155.938 26.3112 155.983 26.3763 156.074 26.4414C156.165 26.4935 156.263 26.5195 156.367 26.5195C156.484 26.5195 156.562 26.474 156.602 26.3828C156.589 26.4349 156.738 25.7773 157.051 24.4102C157.428 22.6133 157.812 21.1484 158.203 20.0156C158.607 18.8828 159.245 17.9128 160.117 17.1055C160.99 16.2982 162.174 15.8945 163.672 15.8945C165.521 15.8945 166.855 16.4284 167.676 17.4961C168.496 18.5508 168.906 19.957 168.906 21.7148C168.906 23.1081 168.672 24.6576 168.203 26.3633C168.203 26.4284 168.249 26.4935 168.34 26.5586C168.431 26.6107 168.529 26.6367 168.633 26.6367C168.75 26.6367 168.828 26.5911 168.867 26.5L169.141 25.4062C169.609 23.4792 170.072 21.8776 170.527 20.6016C170.996 19.3255 171.693 18.2253 172.617 17.3008C173.555 16.3633 174.772 15.8945 176.27 15.8945C178.236 15.8945 179.648 16.526 180.508 17.7891C181.38 19.0521 181.816 20.6406 181.816 22.5547C181.816 23.9089 181.686 25.2695 181.426 26.6367C181.178 28.0039 180.911 29.1497 180.625 30.0742C180.352 30.9987 180.013 32.0664 179.609 33.2773L179.648 33.3164L182.539 32.1055C183.555 32.9779 184.147 34.1367 184.316 35.582C184.316 35.6732 184.023 36.0508 183.438 36.7148C182.852 37.3659 182.077 37.9779 181.113 38.5508C180.163 39.1107 179.069 39.3906 177.832 39.3906C176.595 39.3906 175.586 39.0586 174.805 38.3945C174.023 37.7305 173.633 36.5977 173.633 34.9961C173.633 33.2122 173.665 31.3828 173.73 29.5078C173.809 27.6198 173.919 25.9271 174.062 24.4297C173.841 24.2474 173.535 24.1497 173.145 24.1367C172.754 24.5143 172.266 25.3411 171.68 26.6172C171.094 27.8802 170.553 29.2344 170.059 30.6797C169.564 32.112 169.251 33.2318 169.121 34.0391C169.303 35.3151 169.583 36.5781 169.961 37.8281C169.727 38.2708 169.245 38.6419 168.516 38.9414C167.786 39.2409 166.888 39.3906 165.82 39.3906C164.857 39.3906 164.102 39.3125 163.555 39.1562C163.008 39 162.63 38.8372 162.422 38.668C162.227 38.4987 162.129 38.388 162.129 38.3359C162.116 38.2188 162.083 37.9128 162.031 37.418C161.979 36.9102 161.927 36.207 161.875 35.3086C161.823 34.3971 161.797 33.362 161.797 32.2031C161.797 31.0964 161.882 29.7096 162.051 28.043C162.064 27.8346 162.103 27.3398 162.168 26.5586C162.233 25.7773 162.266 25.0677 162.266 24.4297C162.044 24.2474 161.738 24.1497 161.348 24.1367C161.126 24.306 160.508 25.3867 159.492 27.3789C158.477 29.3711 157.799 30.7773 157.461 31.5977C157.435 31.7799 157.422 31.9557 157.422 32.125C157.422 32.776 157.52 33.6549 157.715 34.7617C157.91 35.8555 158.151 36.8776 158.438 37.8281C158.203 38.2708 157.721 38.6419 156.992 38.9414C156.263 39.2409 155.365 39.3906 154.297 39.3906C153.333 39.3906 152.559 39.3125 151.973 39.1562C151.4 39 150.996 38.8372 150.762 38.668C150.527 38.4857 150.41 38.375 150.41 38.3359C150.397 38.2188 150.365 37.9128 150.312 37.418C150.26 36.9102 150.208 36.207 150.156 35.3086C150.104 34.3971 150.078 33.362 150.078 32.2031ZM185.566 27.6523C185.566 25.3997 185.944 23.388 186.699 21.6172C187.454 19.8464 188.62 18.4466 190.195 17.418C191.784 16.3763 193.763 15.8555 196.133 15.8555C197.37 15.8555 198.607 16.0052 199.844 16.3047C201.081 16.5911 202.129 17.0729 202.988 17.75C203.783 18.388 204.355 19.2344 204.707 20.2891C205.072 21.3307 205.254 22.4896 205.254 23.7656C205.254 24.612 205.182 25.4779 205.039 26.3633C204.883 26.6237 204.577 26.9688 204.121 27.3984C203.665 27.8151 203.132 28.2253 202.52 28.6289C201.908 29.0326 201.315 29.3451 200.742 29.5664C200.195 29.6055 199.629 29.625 199.043 29.625C198.014 29.625 196.973 29.5794 195.918 29.4883C194.863 29.3971 193.939 29.293 193.145 29.1758C193.249 30.2826 193.587 31.2461 194.16 32.0664C194.733 32.8867 195.645 33.2969 196.895 33.2969C197.012 33.2969 197.201 33.2839 197.461 33.2578C198.255 33.1797 199.18 32.9714 200.234 32.6328C201.302 32.2812 202.363 31.8776 203.418 31.4219C203.913 31.9167 204.277 32.4115 204.512 32.9062C204.746 33.401 204.909 34.1107 205 35.0352C204.596 35.5039 203.939 36.0768 203.027 36.7539C202.129 37.431 201.029 38.043 199.727 38.5898C198.424 39.1237 197.064 39.3906 195.645 39.3906C193.509 39.3906 191.68 38.8763 190.156 37.8477C188.646 36.806 187.5 35.3997 186.719 33.6289C185.951 31.8451 185.566 29.8529 185.566 27.6523ZM198.145 23.1602C197.962 22.9648 197.656 22.8151 197.227 22.7109C196.797 22.5938 196.348 22.5352 195.879 22.5352C195.501 22.5352 195.117 22.5677 194.727 22.6328C194.349 22.6979 194.121 22.7695 194.043 22.8477C193.6 23.7201 193.32 24.7096 193.203 25.8164L198.418 25.3086L198.145 23.1602ZM209.707 32.2031C209.707 30.0807 209.733 28.4792 209.785 27.3984C209.837 26.3047 209.974 24.7031 210.195 22.5938L207.93 22.3008C207.656 21.4544 207.474 20.6992 207.383 20.0352C207.305 19.3711 207.266 18.5117 207.266 17.457C207.474 17.2747 207.819 17.0599 208.301 16.8125C208.796 16.5521 209.382 16.3307 210.059 16.1484C210.736 15.9531 211.419 15.8555 212.109 15.8555C213.685 15.8555 214.798 16.194 215.449 16.8711C216.113 17.5482 216.445 18.5638 216.445 19.918C216.445 20.6732 216.335 21.6953 216.113 22.9844C215.749 25.0547 215.566 26.1419 215.566 26.2461C215.566 26.3112 215.612 26.3763 215.703 26.4414C215.794 26.4935 215.892 26.5195 215.996 26.5195C216.113 26.5195 216.191 26.474 216.23 26.3828C216.751 24.3125 217.272 22.5807 217.793 21.1875C218.314 19.7943 219.102 18.5573 220.156 17.4766C221.211 16.3958 222.578 15.8555 224.258 15.8555C226.341 15.8555 227.839 16.4935 228.75 17.7695C229.661 19.0326 230.117 20.6276 230.117 22.5547C230.117 24.2734 229.915 25.9336 229.512 27.5352C229.108 29.1237 228.607 30.7839 228.008 32.5156C228.034 32.4505 227.943 32.7044 227.734 33.2773L227.773 33.3164L230.625 32.1445C231.641 33.0169 232.233 34.1758 232.402 35.6211C232.402 35.7122 232.109 36.0833 231.523 36.7344C230.951 37.3854 230.189 37.9909 229.238 38.5508C228.288 39.1107 227.194 39.3906 225.957 39.3906C224.72 39.3906 223.711 39.0586 222.93 38.3945C222.148 37.7305 221.758 36.5977 221.758 34.9961C221.758 33.7201 221.81 32.0143 221.914 29.8789C222.018 27.7435 222.122 26.0247 222.227 24.7227C221.888 24.3581 221.471 24.1628 220.977 24.1367C220.521 24.7227 219.85 25.8945 218.965 27.6523C218.079 29.4102 217.454 30.7253 217.09 31.5977C217.064 31.7799 217.051 31.9557 217.051 32.125C217.051 32.776 217.148 33.6549 217.344 34.7617C217.539 35.8555 217.78 36.8776 218.066 37.8281C217.832 38.2708 217.35 38.6419 216.621 38.9414C215.892 39.2409 214.993 39.3906 213.926 39.3906C212.962 39.3906 212.188 39.3125 211.602 39.1562C211.029 39 210.625 38.8372 210.391 38.668C210.156 38.4857 210.039 38.375 210.039 38.3359C210.026 38.2188 209.993 37.9128 209.941 37.418C209.889 36.9102 209.837 36.207 209.785 35.3086C209.733 34.3971 209.707 33.362 209.707 32.2031ZM239.238 31.168C240.957 31.168 242.207 31.5456 242.988 32.3008C243.783 33.043 244.18 33.9805 244.18 35.1133C244.18 35.8685 243.939 36.5781 243.457 37.2422C242.988 37.8932 242.37 38.4141 241.602 38.8047C240.846 39.1953 240.059 39.3906 239.238 39.3906C238.418 39.3906 237.624 39.1953 236.855 38.8047C236.1 38.4141 235.482 37.8932 235 37.2422C234.531 36.5781 234.297 35.8685 234.297 35.1133C234.297 33.9805 234.688 33.043 235.469 32.3008C236.263 31.5456 237.52 31.168 239.238 31.168ZM247.441 32.7305C247.559 32.7695 247.806 32.8607 248.184 33.0039C248.574 33.1341 249.004 33.2448 249.473 33.3359V14.9375L246.406 13.9023C246.107 13.1992 245.957 12.3919 245.957 11.4805C245.957 10.7383 246.074 10.0742 246.309 9.48828C247.246 9.24089 248.372 9.05208 249.688 8.92188C251.016 8.77865 252.298 8.70703 253.535 8.70703C255.371 8.70703 256.992 8.84375 258.398 9.11719C259.049 10.3802 260.013 12.7565 261.289 16.2461C262.578 19.7357 264.128 24.3125 265.938 29.9766L266.27 29.9375C265.892 26.7214 265.514 22.9518 265.137 18.6289C264.772 14.293 264.59 11.3242 264.59 9.72266C265.267 9.41016 266.022 9.16927 266.855 9C267.689 8.81771 268.457 8.72656 269.16 8.72656C270.306 8.72656 271.406 8.96094 272.461 9.42969L270.566 34.1172C271.243 35.0938 271.667 36.2396 271.836 37.5547C271.302 38.1406 270.488 38.5964 269.395 38.9219C268.314 39.2344 267.161 39.3906 265.938 39.3906C264.987 39.3906 264.121 39.293 263.34 39.0977C262.572 38.9023 261.973 38.6029 261.543 38.1992C261.556 37.2227 261.641 36.3307 261.797 35.5234C260.82 33.5703 259.876 31.4219 258.965 29.0781C258.066 26.7214 256.921 23.5964 255.527 19.7031L254.668 17.3203L254.551 17.3398C254.824 19.3711 255.117 22.3659 255.43 26.3242C255.742 30.2695 255.898 33.1536 255.898 34.9766C255.898 36.4349 255.462 37.5352 254.59 38.2773C253.73 39.0195 252.383 39.3906 250.547 39.3906C249.974 39.3906 249.362 39.2799 248.711 39.0586C248.06 38.8372 247.467 38.5573 246.934 38.2188C246.413 37.8672 246.048 37.5286 245.84 37.2031C245.84 36.2656 245.983 35.3737 246.27 34.5273C246.556 33.681 246.947 33.082 247.441 32.7305ZM274.609 34.0586C274.609 32.8737 274.85 31.7344 275.332 30.6406C275.553 30.6406 275.898 30.6862 276.367 30.7773C276.836 30.8555 277.331 30.9596 277.852 31.0898C277.786 28.2904 277.754 25.556 277.754 22.8867C277.754 20.0091 277.806 17.5547 277.91 15.5234H277.891L277.91 15.2891L274.727 14.8789C274.531 14.0846 274.401 13.4271 274.336 12.9062C274.271 12.3724 274.245 11.7604 274.258 11.0703C274.674 10.6016 275.286 10.1914 276.094 9.83984C276.914 9.47526 277.793 9.20182 278.73 9.01953C279.681 8.82422 280.547 8.72656 281.328 8.72656C282.826 8.72656 283.991 9.02604 284.824 9.625C285.671 10.2109 286.152 11.1484 286.27 12.4375C286.309 12.9453 286.328 13.4987 286.328 14.0977C286.328 16.0768 286.152 18.4206 285.801 21.1289C285.449 23.8372 284.98 27.0013 284.395 30.6211L284.238 31.6367L289.219 31.9102L291.25 25.4258C291.862 25.3997 292.559 25.4453 293.34 25.5625C294.134 25.6797 294.818 25.8424 295.391 26.0508C295.625 26.6628 295.84 27.6393 296.035 28.9805C296.243 30.3086 296.348 31.6107 296.348 32.8867C296.348 35.0091 296.035 36.5 295.41 37.3594C295.098 37.776 294.661 38.1406 294.102 38.4531C293.555 38.7526 292.975 38.9805 292.363 39.1367C291.764 39.306 291.224 39.3906 290.742 39.3906C289.974 39.3906 289.076 39.2279 288.047 38.9023C287.018 38.5638 286.009 38.1406 285.02 37.6328C284.03 37.112 283.216 36.5911 282.578 36.0703C281.992 37.0859 281.315 37.8737 280.547 38.4336C279.779 38.9935 278.822 39.3125 277.676 39.3906C277.116 39.2995 276.602 39.0065 276.133 38.5117C275.664 38.0169 275.293 37.3789 275.02 36.5977C274.746 35.8164 274.609 34.9701 274.609 34.0586Z" fill="white"/>
</svg>
