<svg width="600" height="600" viewBox="0 0 600 600" fill="none" xmlns="http://www.w3.org/2000/svg">
<path opacity="0.7" d="M81.516 200.508C81.516 200.508 48.06 286.908 95.076 373.908C142.092 460.908 238.932 506.868 316.44 546.168C393.948 585.468 474.432 566.328 512.676 501.96C550.92 437.592 498.468 391.644 498.396 299.856C498.324 208.068 512.136 183.768 462.396 106.224C412.656 28.68 290.724 11.508 198.516 69.024C106.308 126.54 81.516 200.508 81.516 200.508Z" fill="white"/>
<path d="M160.248 537.492C188.568 567.384 258.096 556.44 288.204 537.492C385.956 475.98 557.304 373.608 565.056 225.288C568.356 162.24 512.772 129.144 489.54 119.436C433.764 96.108 372.564 89.112 312.168 86.4C249.084 83.568 181.368 85.776 124.596 116.556C103.08 128.22 82.8 143.172 68.88 163.584C54.756 184.32 46.632 209.004 44.484 233.928C41.004 274.128 51.816 314.436 68.172 351.324C84.528 388.212 106.344 422.4 126.36 457.404C139.416 480.264 136.392 512.304 160.248 537.492Z" fill="#EF3054"/>
<path opacity="0.7" d="M160.248 537.492C188.568 567.384 258.096 556.44 288.204 537.492C385.956 475.98 557.304 373.608 565.056 225.288C568.356 162.24 512.772 129.144 489.54 119.436C433.764 96.108 372.564 89.112 312.168 86.4C249.084 83.568 181.368 85.776 124.596 116.556C103.08 128.22 82.8 143.172 68.88 163.584C54.756 184.32 46.632 209.004 44.484 233.928C41.004 274.128 51.816 314.436 68.172 351.324C84.528 388.212 106.344 422.4 126.36 457.404C139.416 480.264 136.392 512.304 160.248 537.492Z" fill="white"/>
<path d="M294.684 226.548C294.453 225.794 294.348 225.008 294.372 224.22C294.372 221.184 295.176 218.964 297.54 215.688C300.228 211.908 301.008 209.424 301.032 205.788C301.032 203.088 299.988 202.044 298.092 202.032C296.196 202.02 295.104 203.028 295.08 205.74V209.856H289.44V206.124C289.44 200.052 292.5 196.608 298.296 196.656C304.092 196.704 307.044 200.196 306.996 206.256C306.996 210.324 305.796 213.24 302.892 217.116C300.492 220.248 299.82 222.084 299.796 224.52C299.777 225.229 299.841 225.938 299.988 226.632L294.684 226.548ZM300.132 229.26V234.996H294.384V229.248L300.132 229.26Z" fill="#263238"/>
<path d="M425.58 434.652C428.7 434.652 429.396 433.152 430.008 431.424H432.72V457.068H428.7V437.508H425.58V434.652Z" fill="#263238"/>
<path d="M450.588 473.772L461.316 479.664L454.884 467.868C460.632 463.644 464.693 457.516 466.344 450.576" stroke="#263238" stroke-linecap="round" stroke-linejoin="round"/>
<path d="M435.756 475.32C439.852 474.881 443.855 473.813 447.624 472.152" stroke="#263238" stroke-linecap="round" stroke-linejoin="round"/>
<path d="M395.928 444.816C395.928 461.784 411.828 475.548 431.448 475.548" stroke="#263238" stroke-linecap="round" stroke-linejoin="round"/>
<path d="M402.48 427.032C401.473 428.256 400.562 429.555 399.756 430.92" stroke="#263238" stroke-linecap="round" stroke-linejoin="round"/>
<path d="M466.968 444.816C466.968 427.848 451.068 414.084 431.448 414.084C422.568 413.982 413.925 416.949 406.98 422.484" stroke="#263238" stroke-linecap="round" stroke-linejoin="round"/>
<path d="M534.972 232.596C533.88 232.596 533.196 233.16 533.172 234.708V237.036H529.944V234.924C529.944 231.456 531.756 229.488 535.104 229.536C538.452 229.584 540.168 231.576 540.12 235.056C540.12 237.936 539.004 240.252 535.788 243.588C533.748 245.736 533.172 246.756 533.16 247.896C533.148 248.052 533.148 248.208 533.16 248.364L539.616 248.448V251.556L529.752 251.424V248.76C529.752 246.36 530.664 244.524 533.244 241.884C535.824 239.244 536.652 237.456 536.676 235.14C536.736 233.148 536.052 232.608 534.972 232.596Z" fill="#263238"/>
<path d="M546.192 265.104C550.509 263.209 554.377 260.424 557.544 256.932" stroke="#263238" stroke-linecap="round" stroke-linejoin="round"/>
<path d="M508.14 253.5C513.24 264.996 526.92 270.42 540.432 267.084" stroke="#263238" stroke-linecap="round" stroke-linejoin="round"/>
<path d="M506.472 240.432C506.269 241.79 506.172 243.163 506.184 244.536" stroke="#263238" stroke-linecap="round" stroke-linejoin="round"/>
<path d="M560.832 257.208L570.732 258.06L561.696 251.124C563.634 247.824 564.774 244.117 565.027 240.298C565.279 236.479 564.635 232.654 563.148 229.128C557.328 215.988 540.348 210.792 525.108 217.524C518.161 220.515 512.471 225.831 509.016 232.56" stroke="#263238" stroke-linecap="round" stroke-linejoin="round"/>
<path d="M215.4 106.02C214.2 105.78 213.372 106.272 213 107.952L212.508 110.472L209.004 109.788L209.46 107.508C210.204 103.74 212.508 101.964 216.132 102.708C219.756 103.452 221.22 105.948 220.476 109.716C219.864 112.836 218.22 115.128 214.068 118.116C211.428 120.036 210.6 121.032 210.36 122.268C210.317 122.437 210.293 122.61 210.288 122.784L217.284 124.152L216.612 127.512L205.932 125.412L206.508 122.52C207.024 119.904 208.356 118.104 211.68 115.764C215.004 113.424 216.252 111.636 216.756 109.116C217.2 106.968 216.588 106.248 215.4 106.02Z" fill="#263238"/>
<path d="M217.092 85.956C211.942 85.1761 206.685 85.4826 201.66 86.856" stroke="#263238" stroke-linecap="round" stroke-linejoin="round"/>
<path d="M245.7 119.292C247.752 105.6 238.2 92.4 223.62 87.528" stroke="#263238" stroke-linecap="round" stroke-linejoin="round"/>
<path d="M239.52 132.456C240.523 131.336 241.426 130.132 242.22 128.856" stroke="#263238" stroke-linecap="round" stroke-linejoin="round"/>
<path d="M198.756 84.66L190.032 78L194.352 89.808C186.732 93.996 181.26 100.956 179.952 109.452C177.552 125.148 190.416 140.076 208.56 142.788C216.809 144.107 225.259 142.516 232.464 138.288" stroke="#263238" stroke-linecap="round" stroke-linejoin="round"/>
<path d="M155.292 459.084C154.092 459.084 153.384 459.72 153.384 461.388V463.896H149.904V461.616C149.904 457.872 151.776 455.736 155.388 455.736C159 455.736 160.872 457.872 160.872 461.616C160.872 464.736 159.744 467.244 156.324 470.88C154.152 473.28 153.552 474.324 153.552 475.56C153.534 475.727 153.534 475.896 153.552 476.064H160.5V479.412H149.868V476.532C149.868 473.928 150.804 471.948 153.552 469.08C156.3 466.212 157.152 464.28 157.152 461.76C157.2 459.6 156.468 459.084 155.292 459.084Z" fill="#263238"/>
<path d="M177.132 445.86C184.944 450.984 189.984 459.06 189.984 468.228C189.984 482.172 178.224 493.74 162.816 495.912" stroke="#263238" stroke-linecap="round" stroke-linejoin="round"/>
<path d="M165.192 440.952C166.615 441.268 168.017 441.669 169.392 442.152" stroke="#263238" stroke-linecap="round" stroke-linejoin="round"/>
<path d="M132 485.424C127.658 480.744 125.219 474.612 125.16 468.228C125.16 452.724 139.692 440.16 157.56 440.16" stroke="#263238" stroke-linecap="round" stroke-linejoin="round"/>
<path d="M130.26 500.052L136.14 489.276" stroke="#263238" stroke-linecap="round" stroke-linejoin="round"/>
<path d="M157.548 496.284C152.471 496.294 147.448 495.244 142.8 493.2L134.916 497.532" stroke="#263238" stroke-linecap="round" stroke-linejoin="round"/>
<path d="M50.4 231.288C50.8951 231.366 51.4011 231.25 51.8125 230.964C52.2239 230.677 52.5089 230.243 52.608 229.752H53.94L53.592 242.4H51.612L51.84 232.8H50.304L50.4 231.288Z" fill="#263238"/>
<path d="M36.384 236.112C35.926 239.172 36.5272 242.297 38.088 244.968C41.628 250.968 49.296 253.248 56.568 250.968" stroke="#263238" stroke-linecap="round" stroke-linejoin="round"/>
<path d="M50.28 221.052C48.5965 221.527 46.9827 222.221 45.48 223.116C43.1192 224.5 41.0752 226.364 39.48 228.588L31.812 228.816L37.488 232.2" stroke="#263238" stroke-linecap="round" stroke-linejoin="round"/>
<path d="M66.72 243.72C70.32 238.692 71.124 232.32 68.136 227.244C66.829 225.146 65.0099 223.416 62.8498 222.215C60.6896 221.014 58.2595 220.383 55.788 220.38" stroke="#263238" stroke-linecap="round" stroke-linejoin="round"/>
<path d="M60.78 249.108C61.4526 248.71 62.1016 248.273 62.724 247.8" stroke="#263238" stroke-linecap="round" stroke-linejoin="round"/>
<path d="M386.556 92.4C387.137 92.4865 387.73 92.3486 388.214 92.0143C388.697 91.6801 389.035 91.1745 389.16 90.6H390.72L390.372 105.372H388.056L388.32 94.104H386.52L386.556 92.4Z" fill="#263238"/>
<path d="M409.044 98.064C409.582 101.661 408.879 105.335 407.052 108.48C402.888 115.524 393.852 118.2 385.332 115.536" stroke="#263238" stroke-linecap="round" stroke-linejoin="round"/>
<path d="M392.724 80.4C394.713 80.9486 396.621 81.7555 398.4 82.8C401.17 84.4265 403.566 86.618 405.432 89.232L414.444 89.508L407.784 93.48" stroke="#263238" stroke-linecap="round" stroke-linejoin="round"/>
<path d="M373.416 107.016C369.144 101.1 368.244 93.612 371.748 87.66C373.282 85.1938 375.419 83.1591 377.957 81.7482C380.496 80.3372 383.352 79.5965 386.256 79.596" stroke="#263238" stroke-linecap="round" stroke-linejoin="round"/>
<path d="M380.4 113.328C379.607 112.865 378.842 112.356 378.108 111.804" stroke="#263238" stroke-linecap="round" stroke-linejoin="round"/>
<path d="M256.768 175.169L95.8621 161.233L74.469 408.24L235.375 422.176L256.768 175.169Z" fill="white" stroke="#263238" stroke-linecap="round" stroke-linejoin="round"/>
<path d="M122.966 356.173L86.6462 353.027L82.9217 396.03L119.242 399.176L122.966 356.173Z" fill="#EF3054" stroke="#263238" stroke-linecap="round" stroke-linejoin="round"/>
<path d="M100.296 364.8C103.68 365.088 104.58 363.528 105.42 361.704L108.372 361.968L105.972 389.856L101.58 389.472L103.428 368.196L100.044 367.908L100.296 364.8Z" fill="#263238"/>
<path d="M231.633 365.76L127.491 356.741L126.206 371.577L230.348 380.597L231.633 365.76Z" fill="#263238"/>
<path d="M192 371.508L134.508 366.528C134.284 366.51 134.066 366.448 133.866 366.345C133.666 366.242 133.488 366.101 133.343 365.929C133.198 365.757 133.089 365.558 133.021 365.344C132.953 365.13 132.928 364.904 132.948 364.68C132.991 364.23 133.208 363.814 133.554 363.523C133.899 363.231 134.345 363.087 134.796 363.12L192.3 368.1C192.752 368.143 193.17 368.362 193.462 368.71C193.754 369.058 193.897 369.507 193.86 369.96C193.817 370.411 193.598 370.828 193.249 371.118C192.901 371.408 192.452 371.548 192 371.508Z" fill="white"/>
<path d="M212.184 389.4L126.984 382.02C126.76 382.002 126.543 381.94 126.343 381.837C126.144 381.734 125.967 381.592 125.823 381.42C125.679 381.248 125.571 381.049 125.504 380.835C125.438 380.621 125.415 380.395 125.436 380.172C125.456 379.949 125.519 379.732 125.623 379.534C125.726 379.335 125.868 379.159 126.039 379.015C126.211 378.871 126.409 378.763 126.623 378.696C126.836 378.629 127.061 378.604 127.284 378.624L212.484 385.992C212.709 386.012 212.927 386.075 213.127 386.179C213.327 386.284 213.505 386.426 213.649 386.599C213.794 386.772 213.904 386.971 213.971 387.186C214.039 387.401 214.064 387.627 214.044 387.852C214.024 388.076 213.961 388.294 213.856 388.494C213.752 388.693 213.609 388.87 213.437 389.014C213.264 389.157 213.064 389.266 212.849 389.332C212.634 389.398 212.408 389.421 212.184 389.4Z" fill="#263238"/>
<path d="M222.492 399.12L126.252 390.792C125.801 390.749 125.384 390.53 125.094 390.181C124.804 389.833 124.664 389.384 124.704 388.932C124.722 388.708 124.784 388.491 124.887 388.291C124.99 388.092 125.132 387.915 125.304 387.771C125.476 387.627 125.675 387.519 125.889 387.452C126.103 387.386 126.329 387.363 126.552 387.384L222.792 395.712C223.243 395.755 223.66 395.974 223.95 396.323C224.24 396.671 224.38 397.12 224.34 397.572C224.32 397.795 224.257 398.012 224.153 398.211C224.05 398.409 223.908 398.585 223.737 398.729C223.565 398.873 223.367 398.981 223.153 399.048C222.94 399.116 222.715 399.14 222.492 399.12Z" fill="#263238"/>
<path d="M183 404.532L125.496 399.6C125.045 399.56 124.627 399.344 124.335 398.998C124.043 398.651 123.899 398.204 123.936 397.752C123.954 397.528 124.016 397.31 124.119 397.11C124.222 396.91 124.363 396.732 124.535 396.587C124.707 396.442 124.906 396.333 125.12 396.265C125.334 396.197 125.56 396.172 125.784 396.192L183.288 401.172C183.512 401.19 183.73 401.252 183.93 401.355C184.13 401.458 184.308 401.599 184.453 401.771C184.598 401.943 184.707 402.142 184.775 402.356C184.843 402.57 184.868 402.796 184.848 403.02C184.799 403.464 184.579 403.871 184.233 404.154C183.887 404.437 183.445 404.572 183 404.532Z" fill="#263238"/>
<path d="M256.769 175.167L95.8636 161.231L93.3776 189.936L254.283 203.872L256.769 175.167Z" fill="#EF3054" stroke="#263238" stroke-linecap="round" stroke-linejoin="round"/>
<path d="M160.224 186.876L163.476 173.028L165.96 173.244L161.82 190.212L157.788 189.864L156.588 172.44L159.324 172.68L160.224 186.876Z" fill="#263238"/>
<path d="M166.656 177.456C166.896 174.708 168.48 173.268 171.132 173.496C173.784 173.724 175.092 175.416 174.852 178.176L174.084 187.104C173.844 189.864 172.26 191.304 169.608 191.076C166.956 190.848 165.648 189.144 165.876 186.396L166.656 177.456ZM168.564 186.804C168.456 188.004 168.96 188.544 169.824 188.616C170.688 188.688 171.264 188.28 171.36 187.044L172.164 177.768C172.272 176.568 171.78 176.028 170.964 175.956C170.148 175.884 169.524 176.292 169.416 177.528L168.564 186.804Z" fill="#263238"/>
<path d="M176.172 174.132L184.512 174.852L184.308 177.252L181.476 177L180.204 191.736L177.504 191.496L178.8 176.832L175.98 176.58L176.172 174.132Z" fill="#263238"/>
<path d="M187.764 182.4L191.472 182.712L191.256 185.172L187.548 184.848L187.116 189.888L191.784 190.284L191.568 192.744L184.2 192.108L185.688 174.912L193.056 175.56L192.852 177.96L188.184 177.564L187.764 182.4Z" fill="#263238"/>
<path d="M244.488 217.356L232.8 352.38C232.743 353.05 232.554 353.702 232.244 354.299C231.934 354.896 231.509 355.426 230.994 355.859C230.479 356.291 229.884 356.618 229.242 356.82C228.601 357.022 227.926 357.095 227.256 357.036L92.22 345.348C90.8731 345.223 89.6306 344.57 88.7646 343.53C87.8987 342.491 87.4799 341.151 87.6 339.804L99.24 204.768C99.362 203.414 100.015 202.163 101.056 201.289C102.097 200.414 103.441 199.987 104.796 200.1L239.82 211.8C240.492 211.857 241.145 212.047 241.744 212.357C242.342 212.668 242.873 213.093 243.307 213.609C243.741 214.125 244.068 214.722 244.271 215.365C244.473 216.008 244.547 216.685 244.488 217.356Z" fill="white" stroke="#263238" stroke-linecap="round" stroke-linejoin="round"/>
<path d="M119.16 286.98C121.56 284.388 142.128 278.7 165.648 280.728C189.168 282.756 208.476 293.628 210.732 297.132C217.008 306.876 227.004 340.536 227.004 340.536L95.292 329.124C95.292 329.124 110.808 295.752 119.16 286.98Z" fill="#263238"/>
<path d="M181.092 286.104C178.49 299.315 173.761 312.017 167.088 323.712C165.613 326.326 163.978 328.847 162.192 331.26C160.663 328.492 159.328 325.621 158.196 322.668C151.44 305.244 149.388 283.356 149.388 283.356L181.092 286.104Z" fill="white" stroke="#263238" stroke-linecap="round" stroke-linejoin="round"/>
<path d="M167.088 323.712C165.613 326.326 163.978 328.847 162.192 331.26C160.663 328.492 159.328 325.621 158.196 322.668L162.864 299.1L160.176 291.9L165.096 287.1L169.728 293.1L165.78 299.328L167.088 323.712Z" fill="#EF3054" stroke="#263238" stroke-linecap="round" stroke-linejoin="round"/>
<path d="M148.452 283.272L156.084 297.672L165.156 288.696L173.304 299.16L181.98 286.56C181.98 286.56 181.452 279.036 166.092 277.872C150.732 276.708 148.452 283.272 148.452 283.272Z" fill="white" stroke="#263238" stroke-linecap="round" stroke-linejoin="round"/>
<path d="M178.356 281.892L165.156 287.1L153.372 279.9C158.676 275.892 154.68 264.816 154.68 264.816L167.124 265.896L177.804 266.82C176.956 268.949 176.371 271.173 176.064 273.444C175.2 280.032 178.356 281.892 178.356 281.892Z" fill="white" stroke="#263238" stroke-linecap="round" stroke-linejoin="round"/>
<g opacity="0.5">
<path d="M146.4 282.168C146.4 282.168 137.772 286.284 132.444 299.028L142.044 301.08L135.972 305.88C135.972 305.88 140.1 316.128 151.572 328.056" stroke="white" stroke-linecap="round" stroke-linejoin="round"/>
<path d="M119.592 292.536C119.592 292.536 117.6 311.316 122.604 327.828" stroke="white" stroke-linecap="round" stroke-linejoin="round"/>
<path d="M114.696 310.692C117.563 314.423 119.808 318.592 121.344 323.04" stroke="white" stroke-linecap="round" stroke-linejoin="round"/>
<path d="M183.696 285.396C183.696 285.396 191.484 290.94 194.496 304.404L184.632 304.764L189.792 310.524C189.792 310.524 183.96 319.896 170.592 329.724" stroke="white" stroke-linecap="round" stroke-linejoin="round"/>
<path d="M208.368 300.228C208.368 300.228 207.096 319.068 199.332 334.476" stroke="white" stroke-linecap="round" stroke-linejoin="round"/>
<path d="M210.06 318.948C206.593 322.133 203.663 325.857 201.384 329.976" stroke="white" stroke-linecap="round" stroke-linejoin="round"/>
</g>
<path d="M177.744 266.856C176.896 268.985 176.311 271.209 176.004 273.48C172.872 275.676 168.804 277.92 166.02 277.08C161.016 275.496 156.216 268.68 156.216 268.68L167.016 265.956L177.744 266.856Z" fill="#263238"/>
<path d="M184.188 251.052C184.188 251.052 186.228 249.18 187.08 249.936C187.655 250.492 188.065 251.197 188.265 251.973C188.464 252.748 188.444 253.563 188.208 254.328C187.56 256.008 185.148 258.816 184.824 260.544C184.5 262.272 183.216 264.144 182.088 262.944C180.96 261.744 184.188 251.052 184.188 251.052Z" fill="white" stroke="#263238" stroke-linecap="round" stroke-linejoin="round"/>
<path d="M150.984 248.172C150.984 248.172 149.304 245.988 148.32 246.576C147.659 247.029 147.136 247.654 146.808 248.385C146.48 249.115 146.36 249.922 146.46 250.716C146.808 252.48 148.716 255.66 148.728 257.424C148.74 259.188 149.688 261.264 151.02 260.208C152.352 259.152 150.984 248.172 150.984 248.172Z" fill="white" stroke="#263238" stroke-linecap="round" stroke-linejoin="round"/>
<path d="M169.2 226.176C192.624 228.204 183.672 257.832 178.5 267.48C176.676 270.864 169.176 275.184 165.372 274.848C161.844 274.548 154.8 269.256 153.66 265.824C150.192 255.384 146.892 224.244 169.2 226.176Z" fill="white" stroke="#263238" stroke-linecap="round" stroke-linejoin="round"/>
<path d="M171.528 245.784C171.528 245.784 177.792 244.428 179.352 248.364" stroke="#263238" stroke-linecap="round" stroke-linejoin="round"/>
<path d="M175.596 251.316C175.536 252.036 175.116 252.588 174.672 252.516C174.228 252.444 173.904 251.868 173.964 251.148C174.024 250.428 174.444 249.876 174.888 249.948C175.332 250.02 175.656 250.596 175.596 251.316Z" fill="#263238"/>
<path d="M164.4 245.172C164.4 245.172 158.46 242.772 156.252 246.372" stroke="#263238" stroke-linecap="round" stroke-linejoin="round"/>
<path d="M159.408 249.912C159.348 250.632 159.66 251.244 160.104 251.28C160.548 251.316 160.98 250.764 161.04 250.08C161.1 249.396 160.788 248.748 160.332 248.712C159.876 248.676 159.468 249.192 159.408 249.912Z" fill="#263238"/>
<path d="M169.896 256.8C169.836 257.52 167.4 258.54 166.824 258.492C166.248 258.444 163.32 256.62 164.292 255.756C165.209 254.958 165.929 253.959 166.398 252.837C166.866 251.716 167.069 250.501 166.992 249.288" fill="white"/>
<path d="M169.896 256.8C169.836 257.52 167.4 258.54 166.824 258.492C166.248 258.444 163.32 256.62 164.292 255.756C165.209 254.958 165.929 253.959 166.398 252.837C166.866 251.716 167.069 250.501 166.992 249.288" stroke="#263238" stroke-linecap="round" stroke-linejoin="round"/>
<path d="M178.176 230.232C175.436 231.476 172.403 231.926 169.421 231.531C166.438 231.137 163.626 229.913 161.304 228C159.49 228.799 157.798 229.85 156.276 231.12C154.896 232.608 155.076 240.924 155.244 242.94C155.412 244.956 152.196 246.096 152.184 251.172L151.596 253.044C151.596 253.044 148.932 244.08 150.396 237.156C151.86 230.232 159.324 227.34 159.324 227.34C159.324 227.34 164.124 222.924 170.124 223.44C176.34 223.98 179.616 229.584 179.616 229.584C179.616 229.584 192.3 235.944 182.904 256.404L182.46 253.788C182.995 251.346 182.642 248.793 181.464 246.588C180.492 244.872 182.58 238.512 182.388 235.98C182.196 233.448 178.176 230.232 178.176 230.232Z" fill="#263238"/>
<path d="M160.524 261.972C164.59 263.12 168.836 263.49 173.04 263.064" stroke="#263238" stroke-linecap="round" stroke-linejoin="round"/>
<path d="M161.004 262.32C161.004 262.32 162.204 264.72 163.02 264.852C163.836 264.984 169.02 265.896 170.352 265.296C171.227 264.749 171.963 264.005 172.5 263.124" stroke="#263238" stroke-linecap="round" stroke-linejoin="round"/>
<path d="M207.9 317.016L207.048 313.632C206.872 312.943 206.834 312.225 206.936 311.521C207.038 310.816 207.278 310.139 207.643 309.528C208.007 308.917 208.489 308.384 209.061 307.96C209.632 307.536 210.282 307.228 210.972 307.056C212.333 306.711 213.775 306.909 214.993 307.608C216.211 308.306 217.11 309.451 217.5 310.8L218.808 315.3L207.9 317.016Z" fill="#999999" stroke="#263238" stroke-linecap="round" stroke-linejoin="round"/>
<path d="M187.104 304.428C186.839 304.789 186.499 305.089 186.108 305.306C185.716 305.523 185.282 305.654 184.836 305.688C184.52 305.706 184.209 305.598 183.972 305.388L181.476 303.18C181.18 302.919 180.94 302.601 180.771 302.245C180.602 301.889 180.507 301.502 180.493 301.108C180.478 300.713 180.544 300.321 180.686 299.953C180.828 299.585 181.044 299.25 181.32 298.968L181.5 298.8C182.041 298.311 182.749 298.05 183.478 298.07C184.206 298.09 184.899 298.39 185.412 298.908L187.98 301.38C188.162 301.557 188.283 301.787 188.327 302.037C188.37 302.287 188.332 302.544 188.22 302.772C187.911 303.364 187.536 303.919 187.104 304.428Z" fill="#999999" stroke="#263238" stroke-linecap="round" stroke-linejoin="round"/>
<path d="M197.76 341.04L192.612 307.992C192.501 307.315 192.167 306.694 191.664 306.228L187.2 302.076C186.902 302.031 186.598 302.047 186.307 302.124C186.016 302.201 185.743 302.337 185.507 302.524C185.271 302.711 185.075 302.944 184.933 303.21C184.791 303.476 184.705 303.768 184.68 304.068L188.952 308.088C189.243 308.373 189.437 308.742 189.504 309.144L194.472 340.8L197.76 341.04Z" fill="#0B132B" stroke="#263238" stroke-linecap="round" stroke-linejoin="round"/>
<path d="M139.548 300.312C139.752 300.71 140.036 301.06 140.383 301.341C140.731 301.622 141.133 301.828 141.564 301.944C141.873 302.013 142.196 301.957 142.464 301.788L145.308 300.036C145.643 299.831 145.933 299.56 146.16 299.24C146.387 298.92 146.546 298.556 146.628 298.172C146.71 297.788 146.713 297.392 146.636 297.006C146.56 296.621 146.406 296.256 146.184 295.932L146.04 295.728C145.589 295.156 144.937 294.778 144.216 294.67C143.496 294.563 142.762 294.736 142.164 295.152L139.2 297.156C138.989 297.298 138.829 297.504 138.743 297.744C138.656 297.983 138.648 298.244 138.72 298.488C138.929 299.124 139.206 299.736 139.548 300.312Z" fill="#999999" stroke="#263238" stroke-linecap="round" stroke-linejoin="round"/>
<path d="M122.748 334.548L133.548 302.88C133.76 302.233 134.182 301.675 134.748 301.296L139.884 297.984C140.186 297.989 140.484 298.057 140.759 298.183C141.034 298.309 141.28 298.49 141.482 298.715C141.683 298.94 141.836 299.205 141.931 299.492C142.026 299.779 142.06 300.083 142.032 300.384L137.136 303.624C136.798 303.847 136.545 304.176 136.416 304.56L126 334.8L122.748 334.548Z" fill="#0B132B" stroke="#263238" stroke-linecap="round" stroke-linejoin="round"/>
<path d="M233.772 341.124L232.788 352.38C232.731 353.05 232.542 353.702 232.232 354.299C231.922 354.896 231.497 355.426 230.982 355.859C230.467 356.291 229.872 356.618 229.23 356.82C228.589 357.022 227.914 357.095 227.244 357.036L92.22 345.348C90.8731 345.223 89.6306 344.57 88.7646 343.53C87.8987 342.491 87.4799 341.151 87.6 339.804L88.572 328.536L233.772 341.124Z" fill="#999999" stroke="#263238" stroke-linecap="round" stroke-linejoin="round"/>
<path d="M206.928 328.236L204.468 318.468L211.812 312.156L221.676 315L225.324 323.94L220.068 329.376L206.928 328.236Z" fill="#0B132B" stroke="#263238" stroke-linecap="round" stroke-linejoin="round"/>
<path d="M206.928 328.236L214.644 322.008L222.612 323.352" fill="#0B132B"/>
<path d="M206.928 328.236L214.644 322.008L222.612 323.352" stroke="#263238" stroke-linecap="round" stroke-linejoin="round"/>
<path d="M214.632 322.008L212.688 314.772" stroke="#263238" stroke-linecap="round" stroke-linejoin="round"/>
<path d="M215.52 339.456L212.916 327.108C212.916 327.108 216.108 324.168 219.936 325.5L225.096 340.284L215.52 339.456Z" fill="#757575" stroke="#263238" stroke-linecap="round" stroke-linejoin="round"/>
<path d="M119.46 309.36L120.888 306.168C121.184 305.516 121.348 304.812 121.371 304.096C121.394 303.381 121.274 302.667 121.02 301.998C120.766 301.329 120.381 300.716 119.889 300.196C119.397 299.676 118.806 299.259 118.152 298.968C116.867 298.4 115.412 298.351 114.092 298.832C112.773 299.313 111.69 300.286 111.072 301.548L109.02 305.748L119.46 309.36Z" fill="#999999" stroke="#263238" stroke-linecap="round" stroke-linejoin="round"/>
<path d="M118.488 320.58L122.592 311.376L116.436 303.9L106.236 304.992L101.1 313.188L105.36 319.44L118.488 320.58Z" fill="#0B132B" stroke="#263238" stroke-linecap="round" stroke-linejoin="round"/>
<path d="M118.488 320.58L111.972 313.116L103.884 313.068" fill="#0B132B"/>
<path d="M118.488 320.58L111.972 313.116L103.884 313.068" stroke="#263238" stroke-linecap="round" stroke-linejoin="round"/>
<path d="M111.972 313.116L115.128 306.312" stroke="#263238" stroke-linecap="round" stroke-linejoin="round"/>
<path d="M108.108 330.156L112.788 318.432C112.788 318.432 110.148 314.988 106.14 315.648L98.52 329.328L108.108 330.156Z" fill="#757575" stroke="#263238" stroke-linecap="round" stroke-linejoin="round"/>
<path d="M488.326 131.151L327.119 141.011L342.255 388.481L503.462 378.621L488.326 131.151Z" fill="white" stroke="#263238" stroke-linecap="round" stroke-linejoin="round"/>
<path d="M382.557 329.861L346.169 332.086L348.804 375.17L385.192 372.944L382.557 329.861Z" fill="#EF3054" stroke="#263238" stroke-linecap="round" stroke-linejoin="round"/>
<path d="M365.148 341.592C363.756 341.688 362.916 342.492 363.048 344.496L363.228 347.484L359.076 347.736L358.908 345.024C358.632 340.548 360.708 337.824 365.028 337.596C369.348 337.368 371.724 339.756 372 344.22C372.228 347.94 371.052 351.012 367.2 355.608C364.8 358.56 364.14 359.928 364.236 361.404C364.243 361.606 364.267 361.806 364.308 362.004L372.612 361.488L372.852 365.484L360.156 366.264L359.952 362.832C359.76 359.712 360.732 357.288 363.792 353.652C366.852 350.016 367.752 347.652 367.572 344.652C367.464 342.132 366.552 341.508 365.148 341.592Z" fill="#263238"/>
<path d="M491.455 323.365L387.118 329.746L388.027 344.611L492.364 338.229L491.455 323.365Z" fill="#263238"/>
<path d="M453.096 334.8L395.496 338.328C395.045 338.354 394.601 338.202 394.262 337.903C393.922 337.604 393.715 337.183 393.684 336.732C393.669 336.507 393.699 336.282 393.773 336.069C393.846 335.856 393.96 335.659 394.11 335.491C394.259 335.322 394.441 335.185 394.644 335.087C394.847 334.989 395.067 334.932 395.292 334.92L452.892 331.392C453.116 331.377 453.34 331.407 453.553 331.479C453.765 331.552 453.961 331.665 454.129 331.814C454.298 331.962 454.435 332.142 454.534 332.344C454.632 332.545 454.69 332.764 454.704 332.988C454.719 333.213 454.688 333.438 454.615 333.651C454.542 333.865 454.428 334.061 454.278 334.23C454.129 334.398 453.947 334.535 453.744 334.633C453.541 334.731 453.321 334.788 453.096 334.8Z" fill="white"/>
<path d="M475.716 349.572L390.384 354.804C390.16 354.819 389.935 354.788 389.722 354.715C389.51 354.642 389.314 354.527 389.147 354.377C388.979 354.228 388.843 354.046 388.747 353.843C388.65 353.64 388.595 353.42 388.584 353.196C388.558 352.745 388.71 352.301 389.009 351.962C389.308 351.622 389.729 351.415 390.18 351.384L475.512 346.164C475.963 346.138 476.407 346.29 476.746 346.589C477.085 346.888 477.293 347.309 477.324 347.76C477.339 347.985 477.308 348.21 477.235 348.423C477.162 348.637 477.048 348.833 476.898 349.002C476.749 349.17 476.567 349.307 476.364 349.405C476.161 349.503 475.941 349.56 475.716 349.572Z" fill="#263238"/>
<path d="M487.344 357.672L390.924 363.6C390.473 363.626 390.029 363.473 389.69 363.175C389.35 362.876 389.143 362.455 389.112 362.004C389.086 361.551 389.24 361.105 389.542 360.766C389.843 360.426 390.267 360.22 390.72 360.192L487.2 354.264C487.423 354.249 487.647 354.279 487.859 354.352C488.07 354.424 488.266 354.538 488.433 354.686C488.6 354.835 488.737 355.015 488.834 355.216C488.931 355.418 488.988 355.637 489 355.86C489.015 356.089 488.983 356.318 488.907 356.534C488.831 356.75 488.712 356.949 488.557 357.118C488.403 357.287 488.216 357.424 488.007 357.519C487.799 357.614 487.573 357.666 487.344 357.672Z" fill="#263238"/>
<path d="M449.076 368.832L391.476 372.36C391.023 372.386 390.577 372.232 390.238 371.93C389.898 371.629 389.692 371.205 389.664 370.752C389.649 370.528 389.68 370.303 389.753 370.091C389.826 369.878 389.941 369.682 390.091 369.515C390.24 369.347 390.422 369.211 390.625 369.115C390.827 369.018 391.048 368.963 391.272 368.952L448.872 365.424C449.096 365.409 449.32 365.439 449.533 365.511C449.745 365.584 449.941 365.697 450.109 365.846C450.278 365.994 450.415 366.174 450.514 366.376C450.612 366.577 450.67 366.796 450.684 367.02C450.699 367.245 450.668 367.47 450.595 367.683C450.522 367.897 450.408 368.093 450.258 368.262C450.109 368.43 449.927 368.567 449.724 368.665C449.521 368.763 449.301 368.82 449.076 368.832Z" fill="#263238"/>
<path d="M488.315 131.152L327.108 141.011L328.867 169.77L490.074 159.91L488.315 131.152Z" fill="#EF3054" stroke="#263238" stroke-linecap="round" stroke-linejoin="round"/>
<path d="M394.548 156.888L395.748 142.716L398.232 142.56L396.624 159.948L392.592 160.188L388.884 143.136L391.608 142.968L394.548 156.888Z" fill="#263238"/>
<path d="M399.528 146.628C399.36 143.88 400.728 142.212 403.368 142.056C406.008 141.9 407.568 143.376 407.736 146.124L408.288 155.088C408.456 157.836 407.088 159.504 404.448 159.66C401.808 159.816 400.236 158.34 400.068 155.58L399.528 146.628ZM402.792 155.592C402.864 156.792 403.428 157.26 404.292 157.2C405.156 157.14 405.672 156.648 405.588 155.424L405.024 146.124C404.952 144.924 404.376 144.456 403.512 144.504C402.648 144.552 402.144 145.068 402.216 146.292L402.792 155.592Z" fill="#263238"/>
<path d="M408.444 141.936L416.844 141.42L416.988 143.88L414.168 144.06L415.068 158.82L412.368 158.988L411.456 144.228L408.636 144.396L408.444 141.936Z" fill="#263238"/>
<path d="M421.2 148.44L424.908 148.212L425.064 150.612L421.344 150.84L421.656 155.892L426.324 155.604L426.48 158.064L419.1 158.508L418.044 141.288L425.424 140.844L425.58 143.244L420.9 143.532L421.2 148.44Z" fill="#263238"/>
<path d="M482.4 174.648L490.692 309.924C490.774 311.28 490.315 312.612 489.415 313.629C488.515 314.646 487.248 315.265 485.892 315.348L350.616 323.628C349.944 323.67 349.27 323.58 348.633 323.361C347.996 323.143 347.408 322.801 346.903 322.355C346.398 321.909 345.986 321.368 345.69 320.763C345.395 320.158 345.221 319.5 345.18 318.828L336.864 183.6C336.822 182.928 336.912 182.254 337.131 181.617C337.349 180.98 337.691 180.392 338.137 179.887C338.583 179.382 339.124 178.97 339.729 178.674C340.334 178.379 340.992 178.205 341.664 178.164L476.94 169.872C478.297 169.783 479.634 170.236 480.657 171.131C481.681 172.027 482.308 173.291 482.4 174.648Z" fill="white" stroke="#263238" stroke-linecap="round" stroke-linejoin="round"/>
<path d="M399.6 257.604C399.6 257.604 381.912 266.736 377.856 270.648C373.8 274.56 371.64 306.828 371.64 306.828L462.96 301.2C462.96 301.2 456.6 269.748 454.308 267.516C452.016 265.284 426.816 255.912 426.816 255.912L399.6 257.604Z" fill="#EF3054" stroke="#263238" stroke-linecap="round" stroke-linejoin="round"/>
<path d="M421.536 199.116C423.29 199.327 424.966 199.961 426.42 200.964C428.7 202.608 434.316 207.252 433.332 220.368C432.348 233.484 440.208 238.2 440.988 243.72C441.768 249.24 437.82 250.704 433.668 249.72C429.516 248.736 424.356 255.984 413.004 255.876C401.652 255.768 401.604 249.876 397.404 250.848C393.204 251.82 392.292 254.28 388.776 251.376C385.26 248.472 387.06 242.832 389.904 235.404C392.748 227.976 387.36 213.672 393.996 204.204C400.632 194.736 416.892 194.916 421.536 199.116Z" fill="#263238"/>
<path d="M426.816 255.936L415.692 278.736L400.2 256.8C400.2 256.8 404.064 255.384 405.108 252.528C405.66 251.04 404.952 246.408 404.172 242.304C403.44 238.536 402.636 235.212 402.636 235.212L422.4 236.616C422.039 239.643 421.851 242.688 421.836 245.736C421.817 247.586 421.998 249.433 422.376 251.244C423.6 256.116 426.816 255.936 426.816 255.936Z" fill="white" stroke="#263238" stroke-linecap="round" stroke-linejoin="round"/>
<path d="M422.4 236.616C422.039 239.643 421.851 242.688 421.836 245.736C420.107 246.947 418.028 247.554 415.92 247.464C413.796 247.38 411.725 246.779 409.887 245.713C408.048 244.646 406.498 243.146 405.372 241.344L404.232 242.244C403.5 238.476 402.696 235.152 402.696 235.152L422.4 236.616Z" fill="#263238"/>
<path d="M396.108 223.992C396.108 223.992 394.224 222.288 393.396 222.936C392.842 223.404 392.434 224.022 392.221 224.716C392.008 225.409 391.999 226.15 392.196 226.848C392.772 228.36 394.992 230.916 395.244 232.476C395.496 234.036 396.684 235.728 397.788 234.624C398.892 233.52 396.108 223.992 396.108 223.992Z" fill="white" stroke="#263238" stroke-linecap="round" stroke-linejoin="round"/>
<path d="M427.764 222.06C427.764 222.06 429.432 220.128 430.332 220.68C430.939 221.074 431.419 221.634 431.715 222.294C432.01 222.954 432.11 223.685 432 224.4C431.616 225.972 429.72 228.78 429.66 230.4C429.6 232.02 428.628 233.808 427.404 232.8C426.18 231.792 427.764 222.06 427.764 222.06Z" fill="white" stroke="#263238" stroke-linecap="round" stroke-linejoin="round"/>
<path d="M410.952 200.784C388.62 202.152 396.312 228.78 401.004 238.08C402.66 241.344 410.064 245.616 413.688 245.388C417.048 245.184 423.504 240.348 424.668 237.108C428.244 227.256 432.24 199.476 410.952 200.784Z" fill="white" stroke="#263238" stroke-linecap="round" stroke-linejoin="round"/>
<path d="M408.288 219.384C408.288 219.384 402.36 217.932 400.788 221.64" stroke="#263238" stroke-linecap="round" stroke-linejoin="round"/>
<path d="M404.28 224.532C404.28 225.216 404.712 225.732 405.144 225.732C405.576 225.732 405.888 225.12 405.84 224.436C405.792 223.752 405.42 223.236 404.988 223.236C404.556 223.236 404.244 223.848 404.28 224.532Z" fill="#263238"/>
<path d="M415.116 218.964C415.116 218.964 420.816 216.804 422.832 220.296" stroke="#263238" stroke-linecap="round" stroke-linejoin="round"/>
<path d="M419.724 223.584C419.724 224.28 419.448 224.856 419.016 224.88C418.584 224.904 418.2 224.376 418.164 223.68C418.128 222.984 418.44 222.42 418.86 222.396C419.28 222.372 419.676 222.9 419.724 223.584Z" fill="#263238"/>
<path d="M413.4 223.02C412.752 224.808 415.476 229.908 414.6 230.832C414.017 231.413 413.248 231.769 412.428 231.84" fill="white"/>
<path d="M413.4 223.02C412.752 224.808 415.476 229.908 414.6 230.832C414.017 231.413 413.248 231.769 412.428 231.84" stroke="#263238" stroke-linecap="round" stroke-linejoin="round"/>
<path d="M418.332 233.676C418.332 233.676 413.016 236.304 407.964 234.312L418.332 233.676Z" fill="white"/>
<path d="M418.332 233.676C418.332 233.676 413.016 236.304 407.964 234.312" stroke="#263238" stroke-linecap="round" stroke-linejoin="round"/>
<path d="M419.736 206.928C419.736 206.928 404.604 213.816 398.232 223.944L397.248 228.396L393.396 222.936C393.396 222.936 388.476 199.848 407.04 197.736C425.604 195.624 432.012 204.78 430.332 220.704L427.296 224.856C427.296 224.856 423.996 211.116 419.736 206.928Z" fill="#263238"/>
<path d="M432.708 258.168L441.564 270.48L429.264 268.896L434.052 274.392L417.936 299.7" stroke="#263238" stroke-linecap="round" stroke-linejoin="round"/>
<path d="M396.156 260.952L390.504 273.6L402.528 270.528L397.392 277.764L416.4 299.796" stroke="#263238" stroke-linecap="round" stroke-linejoin="round"/>
<path d="M401.412 254.676L415.44 277.332L426.24 253.164C426.24 253.164 433.944 255.768 437.232 261.036C437.232 261.036 427.404 260.544 424.032 263.184L417.024 294.708L405.6 266.532C405.6 266.532 397.368 262.74 392.244 263.796C394.306 259.898 397.503 256.718 401.412 254.676Z" fill="#0B132B" stroke="#263238" stroke-linecap="round" stroke-linejoin="round"/>
<path d="M451.2 271.416C451.2 271.416 444.924 282.636 444.648 302.352" stroke="#263238" stroke-linecap="round" stroke-linejoin="round"/>
<path d="M379.944 274.26C379.944 274.26 386.82 282.492 389.28 305.736" stroke="#263238" stroke-linecap="round" stroke-linejoin="round"/>
<path d="M460.8 278.604L459.456 275.388C459.182 274.73 459.041 274.025 459.04 273.312C459.039 272.6 459.179 271.894 459.451 271.235C459.723 270.577 460.122 269.978 460.625 269.474C461.128 268.97 461.726 268.569 462.384 268.296C463.679 267.759 465.132 267.745 466.437 268.257C467.742 268.77 468.797 269.769 469.38 271.044L471.336 275.304L460.8 278.604Z" fill="#999999" stroke="#263238" stroke-linecap="round" stroke-linejoin="round"/>
<path d="M438.42 269.22C438.209 269.615 437.916 269.96 437.56 270.232C437.204 270.503 436.793 270.694 436.356 270.792C436.046 270.857 435.722 270.797 435.456 270.624L432.66 268.8C432.331 268.584 432.049 268.304 431.831 267.976C431.613 267.648 431.465 267.279 431.394 266.892C431.323 266.505 431.332 266.107 431.42 265.724C431.507 265.34 431.672 264.978 431.904 264.66C431.947 264.593 431.995 264.528 432.048 264.468C432.514 263.909 433.177 263.55 433.899 263.463C434.622 263.376 435.35 263.568 435.936 264L438.828 266.064C439.037 266.21 439.194 266.42 439.276 266.661C439.358 266.903 439.361 267.165 439.284 267.408C439.057 268.039 438.768 268.647 438.42 269.22Z" fill="#999999" stroke="#263238" stroke-linecap="round" stroke-linejoin="round"/>
<path d="M454.344 303.864L444.384 271.932C444.179 271.275 443.755 270.708 443.184 270.324L438.12 266.88C437.819 266.879 437.521 266.941 437.245 267.06C436.969 267.179 436.72 267.354 436.514 267.573C436.308 267.793 436.149 268.052 436.048 268.335C435.946 268.619 435.904 268.92 435.924 269.22L440.724 272.568C441.054 272.804 441.298 273.141 441.42 273.528L451.02 304.068L454.344 303.864Z" fill="#0B132B" stroke="#263238" stroke-linecap="round" stroke-linejoin="round"/>
<path d="M390.78 272.136C391.037 272.502 391.369 272.808 391.754 273.036C392.139 273.263 392.568 273.407 393.012 273.456C393.327 273.477 393.637 273.374 393.876 273.168L396.432 271.02C396.734 270.767 396.982 270.456 397.159 270.104C397.337 269.752 397.44 269.368 397.464 268.974C397.488 268.581 397.431 268.187 397.296 267.817C397.162 267.446 396.954 267.107 396.684 266.82L396.528 266.652C395.999 266.148 395.297 265.867 394.566 265.867C393.835 265.867 393.133 266.148 392.604 266.652L389.976 269.052C389.788 269.225 389.66 269.453 389.61 269.703C389.56 269.953 389.592 270.213 389.7 270.444C389.994 271.047 390.357 271.615 390.78 272.136Z" fill="#999999" stroke="#263238" stroke-linecap="round" stroke-linejoin="round"/>
<path d="M379.2 308.472L385.2 275.556C385.322 274.882 385.669 274.268 386.184 273.816L390.78 269.784C391.079 269.746 391.382 269.769 391.672 269.853C391.961 269.937 392.23 270.08 392.462 270.272C392.694 270.465 392.884 270.703 393.02 270.972C393.156 271.241 393.235 271.535 393.252 271.836L388.884 275.748C388.582 276.018 388.379 276.381 388.308 276.78L382.5 308.268L379.2 308.472Z" fill="#0B132B" stroke="#263238" stroke-linecap="round" stroke-linejoin="round"/>
<path d="M489.972 298.644L490.668 309.924C490.75 311.28 490.291 312.612 489.391 313.629C488.491 314.647 487.224 315.265 485.868 315.348L350.592 323.628C349.92 323.67 349.246 323.58 348.609 323.361C347.972 323.143 347.384 322.801 346.879 322.355C346.374 321.909 345.962 321.368 345.666 320.763C345.371 320.158 345.197 319.5 345.156 318.828L344.472 307.548L489.972 298.644Z" fill="#999999" stroke="#263238" stroke-linecap="round" stroke-linejoin="round"/>
<path d="M461.532 289.848L457.656 280.548L464.004 273.228L474.168 274.584L479.1 282.9L474.684 289.044L461.532 289.848Z" fill="#0B132B" stroke="#263238" stroke-linecap="round" stroke-linejoin="round"/>
<path d="M461.532 289.848L468.24 282.564L476.316 282.708" fill="#0B132B"/>
<path d="M461.532 289.848L468.24 282.564L476.316 282.708" stroke="#263238" stroke-linecap="round" stroke-linejoin="round"/>
<path d="M468.24 282.564L465.252 275.676" stroke="#263238" stroke-linecap="round" stroke-linejoin="round"/>
<path d="M471.672 299.688L467.28 287.844C467.28 287.844 470.004 284.472 474 285.228L481.272 299.1L471.672 299.688Z" fill="#757575" stroke="#263238" stroke-linecap="round" stroke-linejoin="round"/>
<path d="M372.24 284.04L373.176 280.68C373.37 279.995 373.426 279.278 373.342 278.57C373.258 277.863 373.035 277.179 372.686 276.558C372.337 275.937 371.869 275.391 371.308 274.952C370.748 274.512 370.106 274.187 369.42 273.996C368.064 273.617 366.615 273.781 365.378 274.453C364.141 275.125 363.215 276.252 362.796 277.596L361.38 282L372.24 284.04Z" fill="#999999" stroke="#263238" stroke-linecap="round" stroke-linejoin="round"/>
<path d="M372.924 295.272L375.636 285.564L368.448 279.072L358.512 281.664L354.648 290.52L359.76 296.076L372.924 295.272Z" fill="#0B132B" stroke="#263238" stroke-linecap="round" stroke-linejoin="round"/>
<path d="M372.924 295.272L365.376 288.864L357.372 289.992" fill="#0B132B"/>
<path d="M372.924 295.272L365.376 288.864L357.372 289.992" stroke="#263238" stroke-linecap="round" stroke-linejoin="round"/>
<path d="M365.376 288.852L367.5 281.664" stroke="#263238" stroke-linecap="round" stroke-linejoin="round"/>
<path d="M364.056 306.276L366.972 294C366.972 294 363.852 290.976 359.988 292.224L354.468 306.876L364.056 306.276Z" fill="#757575" stroke="#263238" stroke-linecap="round" stroke-linejoin="round"/>
<path d="M286.104 273.6C286.104 273.6 268.032 267.744 258.504 278.868C248.976 289.992 254.796 312.66 259.476 329.844C264.156 347.028 263.58 355.236 257.136 358.164C257.136 358.164 271.008 359.736 272.736 342.744C273.215 346.166 272.602 349.651 270.984 352.704C270.984 352.704 280.584 351.924 280.584 326.724C280.584 301.524 286.104 273.6 286.104 273.6Z" fill="#263238"/>
<path opacity="0.2" d="M266.4 280.296C266.4 280.296 259.752 282.264 257.856 293.58C255.96 304.896 268.776 329.364 266.4 346.716" stroke="white" stroke-linecap="round" stroke-linejoin="round"/>
<path opacity="0.2" d="M275.772 341.04C275.772 341.04 278.064 318.144 269.712 305.736" stroke="white" stroke-linecap="round" stroke-linejoin="round"/>
<path d="M327.936 362.4C327.936 362.4 308.376 374.832 299.484 374.832C290.592 374.832 265.812 362.136 265.812 362.136C273.636 361.308 283.524 357.192 285.36 352.536C286.332 350.136 285.708 342.228 284.904 335.268C284.736 333.852 284.556 332.472 284.388 331.176C283.788 326.64 283.188 323.22 283.188 323.22L294.636 324.96L312.636 327.708C312.636 327.708 311.544 334.116 311.064 340.908C311.064 341.58 310.98 342.252 310.944 342.924C310.742 346.026 310.842 349.141 311.244 352.224C312.756 360.492 327.936 362.4 327.936 362.4Z" fill="white" stroke="#263238" stroke-linecap="round" stroke-linejoin="round"/>
<path d="M312.756 327.6C312.756 327.6 311.664 334.008 311.184 340.8C294.384 346.644 284.784 331.62 284.388 331.044L294.696 324.828L312.756 327.6Z" fill="#263238"/>
<path d="M360.276 544.452C360.276 544.452 357.192 513.768 345.672 484.872C338.34 466.476 253.452 487.584 253.452 487.584C253.452 487.584 240.048 523.26 243.732 556.452" fill="white"/>
<mask id="mask0_52_219" style="mask-type:luminance" maskUnits="userSpaceOnUse" x="243" y="477" width="118" height="80">
<path d="M360.276 544.452C360.276 544.452 357.192 513.768 345.672 484.872C338.34 466.476 253.452 487.584 253.452 487.584C253.452 487.584 240.048 523.26 243.732 556.452" fill="white"/>
</mask>
<g mask="url(#mask0_52_219)">
<path opacity="0.4" d="M357.9 528.696C352.152 519.54 346.704 511.56 346.704 511.56C346.704 511.56 335.904 514.404 335.52 509.976C335.136 505.548 329.364 504.276 329.364 504.276C320.64 511.728 289.104 527.076 286.26 526.344C283.416 525.612 291.06 515.676 291.06 515.676C276.492 514.404 257.82 497.952 257.82 497.952C252.072 502.284 251.82 516.3 249.6 524.844C247.38 533.388 250.548 541.944 245.544 544.788C244.636 545.31 243.824 545.984 243.144 546.78C242.544 516.684 253.476 487.584 253.476 487.584C253.476 487.584 265.668 484.548 281.22 481.788L289.536 483.384L342.42 481.116C343.88 481.992 345.027 483.306 345.696 484.872C351.159 499.055 355.246 513.731 357.9 528.696Z" fill="#EF3054"/>
</g>
<path d="M360.276 544.452C360.276 544.452 357.192 513.768 345.672 484.872C338.34 466.476 253.452 487.584 253.452 487.584C253.452 487.584 240.048 523.26 243.732 556.452" stroke="#263238" stroke-linecap="round" stroke-linejoin="round"/>
<path d="M269.712 306.9C269.712 306.9 266.376 304.212 265.032 305.388C264.148 306.228 263.523 307.305 263.234 308.49C262.945 309.675 263.002 310.919 263.4 312.072C264.504 314.556 268.488 318.624 269.064 321.216C269.64 323.808 271.776 326.556 273.528 324.588C275.28 322.62 269.712 306.9 269.712 306.9Z" fill="white" stroke="#263238" stroke-linecap="round" stroke-linejoin="round"/>
<path d="M322.656 300.636C322.656 300.636 325.272 297.252 326.844 298.068C327.901 298.678 328.759 299.58 329.317 300.665C329.875 301.751 330.108 302.974 329.988 304.188C329.496 306.864 326.58 311.76 326.628 314.4C326.676 317.04 325.236 320.232 323.028 318.732C320.82 317.232 322.656 300.636 322.656 300.636Z" fill="white" stroke="#263238" stroke-linecap="round" stroke-linejoin="round"/>
<path d="M292.416 266.52C255.048 270.936 269.016 311.964 277.788 327.12C280.86 332.448 296.748 339.948 302.796 339.228C308.424 338.568 318.6 327.012 320.256 321.48C325.32 304.596 328.032 262.308 292.416 266.52Z" fill="white" stroke="#263238" stroke-linecap="round" stroke-linejoin="round"/>
<path d="M289.716 297.996C287.124 300.024 279.624 296.136 277.332 302.508" stroke="#263238" stroke-linecap="round" stroke-linejoin="round"/>
<path d="M284.808 306.132C284.94 307.332 285.636 308.148 286.356 308.064C287.076 307.98 287.556 306.972 287.412 305.832C287.268 304.692 286.584 303.816 285.864 303.9C285.144 303.984 284.664 304.992 284.808 306.132Z" fill="#263238"/>
<path d="M301.128 293.688C301.128 293.688 310.5 292.488 314.22 298.14" stroke="#263238" stroke-linecap="round" stroke-linejoin="round"/>
<path d="M310.296 302.4C310.44 303.6 309.96 304.548 309.24 304.632C308.52 304.716 307.836 303.864 307.692 302.712C307.548 301.56 308.028 300.564 308.748 300.48C309.468 300.396 310.164 301.2 310.296 302.4Z" fill="#263238"/>
<path d="M298.644 303.6C297.708 306.672 302.772 312 301.476 313.632C300.666 314.681 299.974 315.816 299.412 317.016" fill="white"/>
<path d="M298.644 303.6C297.708 306.672 302.772 312 301.476 313.632C300.666 314.681 299.974 315.816 299.412 317.016" stroke="#263238" stroke-linecap="round" stroke-linejoin="round"/>
<path d="M302.604 325.272C302.604 325.272 296.16 323.016 292.056 323.016L302.604 325.272Z" fill="white"/>
<path d="M302.604 325.272C302.604 325.272 296.16 323.016 292.056 323.016" stroke="#263238" stroke-linecap="round" stroke-linejoin="round"/>
<path d="M301.692 273.036C301.692 273.036 297.756 289.632 283.524 295.836C283.524 295.836 292.92 286.68 295.368 278.292C295.368 278.292 283.152 294.168 272.568 303.708L271.296 311.052C271.296 311.052 264.792 309 262.896 302.484C252.972 267.156 287.736 249.972 303.168 260.904C303.168 260.904 311.256 258.948 318.672 268.104C327.204 278.688 326.736 297.996 326.736 297.996C326.736 297.996 324.972 303.852 321.876 305.016L321.792 309.132L319.764 302.436C317.794 299.075 316.387 295.415 315.6 291.6C314.4 286.356 315.348 274.008 301.692 273.036Z" fill="#263238"/>
<path d="M281.028 352.8C284.949 360.297 291.055 366.428 298.536 370.38C298.536 370.38 311.196 362.472 315.888 352.8C319.594 354.116 322.709 356.712 324.672 360.12C324.672 360.12 345.264 354.948 356.616 363.636C361.224 367.176 336.72 461.196 336.72 461.196C343.224 472.608 349.104 491.196 349.104 491.196C329.136 504.468 305.508 500.796 305.508 500.796L300.792 487.596L296.508 500.796C296.508 500.796 273.288 501.264 252.252 487.596C255.364 477.802 259.715 468.446 265.2 459.756C265.2 459.756 244.404 379.2 244.404 365.712C244.404 352.224 273.876 358.236 273.876 358.236C273.876 358.236 278.676 354.288 281.028 352.8Z" fill="#EF3054"/>
<mask id="mask1_52_219" style="mask-type:luminance" maskUnits="userSpaceOnUse" x="244" y="352" width="114" height="150">
<path d="M281.028 352.8C284.949 360.297 291.055 366.428 298.536 370.38C298.536 370.38 311.196 362.472 315.888 352.8C319.594 354.116 322.709 356.712 324.672 360.12C324.672 360.12 345.264 354.948 356.616 363.636C361.224 367.176 336.72 461.196 336.72 461.196C343.224 472.608 349.104 491.196 349.104 491.196C329.136 504.468 305.508 500.796 305.508 500.796L300.792 487.596L296.508 500.796C296.508 500.796 273.288 501.264 252.252 487.596C255.364 477.802 259.715 468.446 265.2 459.756C265.2 459.756 244.404 379.2 244.404 365.712C244.404 352.224 273.876 358.236 273.876 358.236C273.876 358.236 278.676 354.288 281.028 352.8Z" fill="white"/>
</mask>
<g mask="url(#mask1_52_219)">
<path opacity="0.3" d="M346.008 482.244C347.916 487.428 349.104 491.184 349.104 491.184C329.136 504.456 305.508 500.784 305.508 500.784L300.792 487.584L296.508 500.784C296.508 500.784 273.288 501.252 252.252 487.584C253.967 482.1 256.102 476.757 258.636 471.6C260.57 467.547 262.742 463.613 265.14 459.816C265.14 459.816 259.428 437.64 254.004 414.612C249.084 393.744 244.404 372.18 244.404 365.772C244.404 352.296 273.876 358.296 273.876 358.296C273.876 358.296 278.676 354.348 281.076 352.884C284.997 360.381 291.103 366.512 298.584 370.464C298.584 370.464 311.244 362.556 315.936 352.884C319.642 354.2 322.757 356.796 324.72 360.204C324.72 360.204 345.312 355.032 356.664 363.72C358.884 365.424 354.336 388.188 349.02 411.3C343.332 436.092 336.768 461.28 336.768 461.28C340.371 468.025 343.46 475.033 346.008 482.244Z" fill="white"/>
<path opacity="0.2" d="M336.72 461.22C340.343 467.983 343.448 475.011 346.008 482.244C332.436 480.6 319.608 473.496 319.608 473.496L316.716 476.4L295.836 466.188C283.932 470.497 271.274 472.334 258.636 471.588C260.57 467.535 262.742 463.601 265.14 459.804C265.14 459.804 259.428 437.628 254.004 414.6C256.572 397.476 259.716 383.616 263.016 385.956C271.032 391.656 271.656 415.152 271.656 415.152L286.056 384.54L280.056 371.124C273.42 372.432 267.816 377.412 267.816 377.412L269.724 370.74L280.944 363.708L292.476 373.116L295.524 382.632C293.621 390.315 292.849 398.234 293.232 406.14C294.096 417.78 296.316 422.04 296.316 422.04L291.012 423.6L287.052 455.616L320.76 449.712C326.448 411.732 344.496 394.176 344.496 394.176C344.496 394.176 346.488 401.16 348.972 411.192C343.284 436.032 336.72 461.22 336.72 461.22Z" fill="black"/>
<path opacity="0.2" d="M304.176 374.808L315.3 363.66L327.936 369.912C327.936 369.912 328.152 373.896 327.936 377.724C327.936 377.724 321.012 369.744 317.748 369.024C317.748 369.024 311.676 368.832 304.176 374.808Z" fill="black"/>
</g>
<path d="M281.028 352.8C284.949 360.297 291.055 366.428 298.536 370.38C298.536 370.38 311.196 362.472 315.888 352.8C319.594 354.116 322.709 356.712 324.672 360.12C324.672 360.12 345.264 354.948 356.616 363.636C361.224 367.176 336.72 461.196 336.72 461.196C343.224 472.608 349.104 491.196 349.104 491.196C329.136 504.468 305.508 500.796 305.508 500.796L300.792 487.596L296.508 500.796C296.508 500.796 273.288 501.264 252.252 487.596C255.364 477.802 259.715 468.446 265.2 459.756C265.2 459.756 244.404 379.2 244.404 365.712C244.404 352.224 273.876 358.236 273.876 358.236C273.876 358.236 278.676 354.288 281.028 352.8Z" stroke="#263238" stroke-linecap="round" stroke-linejoin="round"/>
<path d="M273.876 358.236C273.876 358.236 269.244 364.236 269.712 370.692L280.932 363.66C286.302 367.269 291.199 371.534 295.512 376.356" stroke="#263238" stroke-linecap="round" stroke-linejoin="round"/>
<path d="M324.672 360.144C326.603 363.055 327.729 366.425 327.936 369.912C324.045 367.233 319.79 365.128 315.3 363.66C315.3 363.66 306.816 369.912 303.732 375.576" stroke="#263238" stroke-linecap="round" stroke-linejoin="round"/>
<path d="M292.056 339.276C292.056 339.276 295.056 332.076 296.352 331.272C297.336 330.66 301.98 331.92 303.36 334.032C304.116 335.232 304.752 340.812 304.752 340.812C301.692 341.196 300.744 337.644 300.744 337.644L298.536 336.996L297.828 340.596C297.828 340.596 305.592 343.152 306.612 344.796C307.26 345.84 306.72 348.3 306.72 348.3C306.72 348.3 310.812 351.132 310.32 354.168C309.8 357.157 308.327 359.898 306.12 361.98C304.824 373.296 298.536 378.876 298.536 378.876L283.524 416.664L271.656 406.704L289.512 371.904L292.056 339.276Z" fill="white" stroke="#263238" stroke-linecap="round" stroke-linejoin="round"/>
<path d="M306.12 362.004C306.12 362.004 306.12 357.408 305.148 355.656" stroke="#263238" stroke-linecap="round" stroke-linejoin="round"/>
<path d="M305.64 357.048C305.64 357.048 307.932 355.944 308.124 354.972" stroke="#263238" stroke-linecap="round" stroke-linejoin="round"/>
<path d="M306.72 348.324C304.78 347.585 302.77 347.047 300.72 346.716" stroke="#263238" stroke-linecap="round" stroke-linejoin="round"/>
<path d="M251.82 357.852C251.82 357.852 238.248 359.856 236.808 377.052C234.984 398.76 242.712 442.128 246.324 450.384C249.936 458.64 265.692 459.624 272.292 454.44C278.892 449.256 284.472 420.492 284.472 420.492L288.144 421.872L289.512 406.584L274.8 395.388L267.168 407.244L262.86 411.408C262.86 411.408 267.6 391.128 261.216 378.312" fill="#EF3054"/>
<mask id="mask2_52_219" style="mask-type:luminance" maskUnits="userSpaceOnUse" x="236" y="357" width="54" height="101">
<path d="M251.82 357.852C251.82 357.852 238.248 359.856 236.808 377.052C234.984 398.76 242.712 442.128 246.324 450.384C249.936 458.64 265.692 459.624 272.292 454.44C278.892 449.256 284.472 420.492 284.472 420.492L288.144 421.872L289.512 406.584L274.8 395.388L267.168 407.244L262.86 411.408C262.86 411.408 267.6 391.128 261.216 378.312" fill="white"/>
</mask>
<g mask="url(#mask2_52_219)">
<path opacity="0.3" d="M251.82 357.852C251.82 357.852 238.248 359.856 236.808 377.052C234.984 398.76 242.712 442.128 246.324 450.384C249.936 458.64 265.692 459.624 272.292 454.44C278.892 449.256 284.472 420.492 284.472 420.492L288.144 421.872L289.512 406.584L274.8 395.388L267.168 407.244L262.86 411.408C262.86 411.408 267.6 391.128 261.216 378.312" fill="white"/>
<path d="M284.472 420.516C284.472 420.516 273.912 416.448 271.272 413.76L271.704 403.164" stroke="#263238" stroke-linecap="round" stroke-linejoin="round"/>
<path d="M262.896 411.408C262.896 411.408 253.188 417.048 252.24 425.46" stroke="#263238" stroke-linecap="round" stroke-linejoin="round"/>
<path d="M253.32 401.424C253.32 401.424 260.676 403.476 263.016 409.488" stroke="#263238" stroke-linecap="round" stroke-linejoin="round"/>
</g>
<path d="M251.82 357.852C251.82 357.852 238.248 359.856 236.808 377.052C234.984 398.76 242.712 442.128 246.324 450.384C249.936 458.64 265.692 459.624 272.292 454.44C278.892 449.256 284.472 420.492 284.472 420.492L288.144 421.872L289.512 406.584L274.8 395.388L267.168 407.244L262.86 411.408C262.86 411.408 267.6 391.128 261.216 378.312" stroke="#263238" stroke-linecap="round" stroke-linejoin="round"/>
<path d="M258.144 449.496C258.144 449.496 265.548 446.988 267.6 446.988C269.652 446.988 281.004 451.548 283.476 451.848C285.948 452.148 302.052 451.848 302.052 451.848L303.78 463.848C303.78 463.848 286.788 462.648 281.832 463.848C276.876 465.048 256.296 463.776 254.976 462.888C252.432 461.196 247.776 459.156 246.192 456.084C245.484 454.68 245.148 449.28 245.988 449.82C249.264 451.908 248.82 454.62 252.6 456C256.38 457.38 262.2 456.12 265.308 455.388C267.648 454.836 268.74 453.732 266.916 451.98C265.476 450.612 259.884 452.508 258.144 449.496Z" fill="white" stroke="#263238" stroke-linecap="round" stroke-linejoin="round"/>
<path d="M356.616 363.66C367.74 370.992 363.312 453 358.368 460.932C354.264 467.496 318.036 467.172 318.036 467.172L317.448 470.112L302.604 467.568L299.448 449.808L309.048 448.608C312.564 443.016 334.668 438.54 334.668 438.54C334.668 438.54 336.72 423.264 336.984 416.676C337.392 406.608 338.448 384.744 349.284 378.276" fill="#EF3054"/>
<mask id="mask3_52_219" style="mask-type:luminance" maskUnits="userSpaceOnUse" x="299" y="363" width="65" height="108">
<path d="M356.616 363.66C367.74 370.992 363.312 453 358.368 460.932C354.264 467.496 318.036 467.172 318.036 467.172L317.448 470.112L302.604 467.568L299.448 449.808L309.048 448.608C312.564 443.016 334.668 438.54 334.668 438.54C334.668 438.54 336.72 423.264 336.984 416.676C337.392 406.608 338.448 384.744 349.284 378.276" fill="white"/>
</mask>
<g mask="url(#mask3_52_219)">
<path opacity="0.3" d="M356.616 363.66C367.74 370.992 363.312 453 358.368 460.932C354.264 467.496 318.036 467.172 318.036 467.172L317.448 470.112L302.604 467.568L299.448 449.808L309.048 448.608C312.564 443.016 334.668 438.54 334.668 438.54C334.668 438.54 336.72 423.264 336.984 416.676C337.392 406.608 338.448 384.744 349.284 378.276" fill="white"/>
<path d="M318 467.172C318.47 462.307 318.586 457.414 318.348 452.532L306.84 451.26L310.764 450.312" stroke="#263238" stroke-linecap="round" stroke-linejoin="round"/>
<path d="M334.668 438.552C334.668 438.552 343.548 436.392 348.288 440.184" stroke="#263238" stroke-linecap="round" stroke-linejoin="round"/>
<path d="M346.548 433.86C346.548 433.86 339.72 434.964 337.512 437.976" stroke="#263238" stroke-linecap="round" stroke-linejoin="round"/>
</g>
<path d="M356.616 363.66C367.74 370.992 363.312 453 358.368 460.932C354.264 467.496 318.036 467.172 318.036 467.172L317.448 470.112L302.604 467.568L299.448 449.808L309.048 448.608C312.564 443.016 334.668 438.54 334.668 438.54C334.668 438.54 336.72 423.264 336.984 416.676C337.392 406.608 338.448 384.744 349.284 378.276" stroke="#263238" stroke-linecap="round" stroke-linejoin="round"/>
<path d="M333.528 389.076C333.528 389.076 333.708 400.164 337.512 407.748" stroke="#263238" stroke-linecap="round" stroke-linejoin="round"/>
<path d="M267.804 384.72C268.203 390.315 267.018 395.908 264.384 400.86" stroke="#263238" stroke-linecap="round" stroke-linejoin="round"/>
<path d="M301.02 394.368C301.022 394.682 300.931 394.99 300.758 395.253C300.585 395.515 300.338 395.72 300.048 395.841C299.758 395.962 299.438 395.995 299.13 395.934C298.822 395.873 298.538 395.722 298.316 395.5C298.094 395.278 297.943 394.994 297.882 394.686C297.821 394.378 297.854 394.058 297.975 393.768C298.096 393.478 298.301 393.231 298.563 393.058C298.826 392.885 299.134 392.794 299.448 392.796C299.864 392.799 300.262 392.966 300.556 393.26C300.85 393.554 301.017 393.952 301.02 394.368Z" fill="#263238"/>
<path d="M301.02 427.032C301.022 427.346 300.931 427.654 300.758 427.917C300.585 428.179 300.338 428.384 300.048 428.505C299.758 428.626 299.438 428.659 299.13 428.598C298.822 428.537 298.538 428.386 298.316 428.164C298.094 427.942 297.943 427.658 297.882 427.35C297.821 427.042 297.854 426.722 297.975 426.432C298.096 426.142 298.301 425.895 298.563 425.722C298.826 425.549 299.134 425.458 299.448 425.46C299.864 425.463 300.262 425.63 300.556 425.924C300.85 426.218 301.017 426.616 301.02 427.032Z" fill="#263238"/>
<path d="M302.4 478.92C302.402 479.234 302.312 479.541 302.139 479.803C301.966 480.065 301.72 480.27 301.431 480.392C301.141 480.514 300.822 480.547 300.514 480.487C300.206 480.427 299.923 480.277 299.7 480.056C299.478 479.835 299.325 479.553 299.263 479.245C299.201 478.938 299.232 478.619 299.351 478.329C299.471 478.039 299.674 477.79 299.935 477.616C300.195 477.441 300.502 477.348 300.816 477.348C301.234 477.348 301.635 477.513 301.932 477.808C302.229 478.102 302.397 478.502 302.4 478.92Z" fill="#263238"/>
<path d="M324.24 510C324.24 510 301.2 530.544 279.3 534" stroke="#263238" stroke-linecap="round" stroke-linejoin="round"/>
<path d="M261.252 536.88C261.252 536.88 291.096 558.084 335.52 554.28" stroke="#263238" stroke-linecap="round" stroke-linejoin="round"/>
<g opacity="0.2">
<path d="M298.08 263.688C298.08 263.688 286.308 286.152 270.876 294.06" stroke="white" stroke-linecap="round" stroke-linejoin="round"/>
<path d="M287.304 264.516C287.304 264.516 282.828 275.004 267.6 277.2" stroke="white" stroke-linecap="round" stroke-linejoin="round"/>
<path d="M305.712 267.132C310.498 269.473 314.719 272.824 318.084 276.956C321.449 281.087 323.877 285.899 325.2 291.06" stroke="white" stroke-linecap="round" stroke-linejoin="round"/>
</g>
</svg>
